<?xml version="1.0" standalone="no"?>
<!DOCTYPE svg PUBLIC "-//W3C//DTD SVG 20010904//EN"
 "http://www.w3.org/TR/2001/REC-SVG-20010904/DTD/svg10.dtd">
<svg version="1.0" xmlns="http://www.w3.org/2000/svg"
 width="495.000000pt" height="320.000000pt" viewBox="0 0 495.000000 320.000000"
 preserveAspectRatio="xMidYMid meet">
<metadata>
Created by potrace 1.16, written by Peter Selinger 2001-2019
</metadata>
<g transform="translate(0.000000,320.000000) scale(0.100000,-0.100000)"
fill="#000000" stroke="none">
<path d="M2558 3134 c-25 -25 -2 -30 180 -32 103 -1 212 -7 242 -13 30 -5 74
-13 97 -18 63 -12 133 -60 171 -116 l32 -50 -24 -3 c-13 -2 -31 -11 -41 -22
-16 -17 -14 -18 37 -25 92 -11 167 -43 193 -84 31 -46 60 -115 45 -106 -6 4
-17 1 -23 -7 -7 -8 -38 -24 -69 -37 -55 -22 -58 -22 -86 -6 -27 16 -30 16 -70
-4 -55 -28 -101 -27 -147 4 -20 14 -51 29 -69 32 -48 9 -56 20 -56 79 l0 54
-42 0 c-24 0 -61 -7 -83 -15 -22 -8 -56 -15 -75 -15 -19 -1 -30 -4 -23 -6 7
-3 9 -12 6 -20 -7 -18 -52 -18 -77 1 -11 8 -26 15 -33 15 -8 0 -30 7 -51 17
l-37 16 30 7 c18 4 -17 7 -84 9 -78 1 -122 6 -140 16 -14 8 -34 17 -43 21 -10
3 -20 15 -23 25 -7 23 -14 23 -39 4 -34 -26 -148 -13 -131 15 3 5 31 23 63 40
33 17 64 43 74 60 12 22 40 41 93 66 41 19 75 39 75 45 0 29 -156 -20 -204
-65 -50 -46 -70 -56 -124 -60 -73 -5 -124 -33 -136 -73 -8 -30 -12 -33 -50
-33 -23 0 -57 -8 -76 -19 -19 -10 -65 -20 -102 -23 -38 -3 -79 -13 -93 -22
-13 -9 -31 -16 -39 -16 -23 0 -123 -127 -141 -178 -8 -26 -15 -79 -15 -123 0
-45 -7 -95 -16 -120 -11 -31 -14 -62 -10 -104 l5 -60 -46 -35 c-61 -46 -84
-69 -108 -110 -11 -19 -27 -46 -37 -61 -17 -28 -43 -144 -59 -264 -11 -76 -27
-110 -59 -120 -11 -3 -20 -11 -20 -16 0 -5 -7 -9 -15 -9 -8 0 -15 -4 -15 -9 0
-5 -13 -14 -29 -19 -33 -12 -111 -78 -111 -96 -1 -6 -15 -20 -33 -31 -41 -26
-67 -96 -74 -195 -5 -77 -37 -215 -55 -237 -16 -20 -18 -248 -2 -275 7 -13 16
-30 19 -38 4 -8 11 -22 16 -30 5 -8 14 -26 19 -39 6 -14 20 -31 30 -38 11 -8
20 -25 20 -38 0 -19 7 -26 28 -31 15 -3 60 -15 101 -27 64 -19 77 -27 102 -63
26 -38 56 -54 102 -54 16 0 -55 59 -71 60 -20 0 -42 64 -51 149 l-8 76 -2 -62
c0 -34 -5 -64 -10 -68 -18 -11 -26 70 -26 260 1 209 10 302 27 271 6 -11 8
-50 3 -102 -4 -46 -3 -98 1 -116 7 -26 10 -13 14 64 3 59 10 102 18 110 20 20
46 -3 59 -55 15 -62 41 -97 106 -141 42 -29 69 -39 119 -46 49 -6 93 -22 193
-74 72 -36 155 -77 185 -90 197 -87 210 -94 231 -131 12 -19 29 -40 39 -45 25
-13 72 -13 107 1 64 25 160 2 207 -50 20 -22 74 -29 92 -11 24 24 254 23 254
-2 0 -5 -18 -40 -40 -78 -39 -66 -51 -110 -30 -110 6 0 10 9 10 19 0 10 21 51
47 90 52 78 58 82 206 121 44 11 92 27 109 36 29 15 30 15 66 -23 21 -21 50
-47 67 -59 l30 -21 -29 -42 c-16 -23 -47 -58 -70 -78 -23 -20 -81 -74 -130
-120 l-90 -83 124 1 125 0 130 136 c71 75 136 147 143 160 20 37 50 63 72 63
12 0 32 11 46 25 14 14 30 25 35 25 19 0 158 150 170 183 7 21 24 39 48 50 25
13 45 35 68 76 18 32 48 77 68 101 19 23 35 51 35 61 0 11 11 31 25 45 14 14
25 31 25 38 0 21 74 209 93 236 11 16 17 43 17 76 0 28 7 69 16 90 10 22 18
75 20 124 2 46 9 89 14 94 11 11 14 109 3 119 -17 18 -34 -40 -40 -139 -3 -60
-12 -120 -20 -134 -7 -14 -13 -33 -13 -42 0 -31 -72 -293 -81 -296 -5 -2 -9
-11 -9 -21 0 -45 -154 -306 -212 -359 -22 -20 -26 -21 -32 -7 -3 9 -3 21 0 27
25 40 21 257 -5 266 -13 4 -15 34 -2 48 12 11 49 79 172 312 50 95 93 171 95
169 8 -8 -47 -149 -103 -267 -93 -193 -102 -222 -45 -132 75 117 138 266 193
457 22 77 49 152 60 168 11 15 17 32 14 38 -14 21 -23 124 -12 137 5 7 12 46
15 87 4 63 1 79 -17 108 -11 19 -21 48 -21 65 0 47 -42 177 -88 270 -35 73
-308 366 -335 360 -8 -2 -33 16 -56 40 -43 44 -81 56 -81 24 0 -12 26 -36 70
-66 140 -96 354 -336 407 -456 14 -30 29 -64 34 -75 32 -73 52 -321 30 -391
-5 -16 -17 -58 -27 -94 -10 -36 -27 -80 -36 -100 -10 -19 -18 -41 -18 -50 0
-9 -4 -20 -8 -25 -5 -6 -17 -32 -27 -60 -10 -27 -21 -54 -25 -58 -4 -4 -10 68
-14 160 -13 300 -25 390 -84 598 -47 168 -145 361 -253 496 -32 41 -64 89 -70
107 -7 21 -16 31 -24 28 -8 -3 -43 18 -79 47 -90 72 -153 117 -164 117 -5 0
-15 7 -22 15 -7 8 -23 15 -35 15 -12 0 -51 10 -86 21 -55 18 -96 22 -279 26
-118 3 -218 2 -222 -3z m-282 -798 c221 -74 367 -157 484 -275 67 -67 126
-142 99 -126 -7 5 -43 33 -78 63 -168 142 -522 339 -644 358 -29 5 -36 1 -72
-46 -47 -60 -178 -178 -212 -191 -20 -7 -23 -15 -23 -65 0 -64 -3 -68 -159
-199 -46 -38 -117 -109 -159 -157 -79 -93 -97 -99 -80 -25 23 104 114 227 267
360 55 48 146 137 203 197 57 61 117 119 133 130 45 29 96 24 241 -24z m1380
-55 c68 -31 -14 -56 -133 -42 -112 14 -126 14 -117 -1 5 -8 -17 -9 -86 -4 -75
6 -102 4 -140 -10 -53 -19 -80 -14 -80 15 0 11 -4 21 -9 23 -5 2 -4 11 4 21
12 17 14 17 46 -2 45 -27 74 -26 100 3 21 24 21 24 182 19 146 -5 164 -4 177
12 13 16 15 16 23 -3 5 -11 20 -25 33 -31z m-1295 -82 c210 -107 407 -249 500
-361 73 -88 66 -103 -16 -38 -117 92 -210 130 -272 109 -81 -26 1 -104 167
-158 55 -18 76 -33 142 -98 83 -82 108 -90 108 -31 l1 33 26 -50 c17 -32 26
-66 26 -95 0 -46 -28 -115 -57 -139 -17 -14 -18 -13 -30 41 -4 15 -17 39 -30
53 -13 14 -30 48 -36 75 -20 85 -152 189 -240 190 -38 0 -84 -19 -81 -34 3
-14 -81 -50 -118 -51 -19 0 -36 -5 -38 -11 -5 -14 37 -23 144 -32 45 -4 88
-13 95 -20 13 -13 19 -132 6 -132 -4 0 -30 21 -59 46 -28 25 -53 43 -56 40 -6
-6 44 -71 79 -102 58 -52 254 -129 303 -118 l30 6 -25 -27 c-14 -15 -52 -45
-85 -68 -89 -60 -195 -173 -237 -253 -20 -38 -44 -103 -53 -144 -16 -71 -21
-79 -81 -137 -61 -61 -64 -63 -116 -63 -29 0 -87 9 -128 21 -240 66 -725 309
-809 404 -36 41 -38 63 -16 188 40 229 181 486 341 623 59 51 118 94 127 94 3
0 7 -10 11 -22 12 -47 139 -104 205 -93 24 4 42 2 46 -4 12 -20 35 -12 46 15
6 18 6 45 -1 82 -8 47 -8 58 5 65 36 20 -4 67 -99 114 l-58 30 38 31 c21 18
42 32 46 32 12 0 66 -78 93 -136 28 -58 35 -63 61 -37 21 22 13 114 -15 179
-11 24 -18 44 -15 44 3 0 59 -27 125 -61z m1402 -169 c27 -8 37 -16 35 -28 -2
-13 -23 -19 -93 -28 -106 -13 -183 -32 -192 -47 -4 -6 4 -7 23 -3 51 13 195
25 226 19 16 -3 33 -15 39 -25 16 -30 17 -354 2 -369 -7 -7 -13 -21 -13 -31 0
-13 -8 -18 -28 -18 -15 0 -38 -7 -50 -16 -40 -28 -22 -74 30 -74 20 0 28 -5
28 -18 0 -20 -29 -64 -30 -45 0 18 -36 26 -60 13 -45 -24 -9 -90 42 -74 15 5
20 3 16 -7 -44 -111 -50 -115 -95 -70 -21 20 -32 23 -71 18 -39 -4 -52 -12
-83 -48 l-37 -44 -5 80 c-3 44 -10 109 -15 145 -16 96 -71 310 -92 350 -10 19
-21 50 -25 68 -4 19 -27 56 -51 83 -51 57 -58 98 -21 121 35 23 121 49 195 58
83 11 274 5 325 -10z m-2503 -453 c0 -2 -25 -17 -56 -32 -89 -45 -114 -105
-73 -171 16 -27 19 -42 14 -79 -7 -42 -5 -46 22 -61 16 -10 42 -34 58 -55 33
-45 225 -234 270 -267 19 -14 23 -20 10 -16 -56 19 -268 203 -334 291 -122
163 -119 306 9 374 30 16 80 26 80 16z m-202 -99 c-16 -70 -4 -182 26 -231 35
-58 147 -184 233 -261 86 -77 150 -121 298 -206 157 -90 155 -89 98 -83 -83 8
-144 34 -253 107 -58 40 -127 84 -153 100 -114 66 -260 238 -305 359 -36 96
-37 121 -8 177 28 53 57 89 67 83 4 -1 2 -22 -3 -45z m2124 -84 c17 -37 33
-89 36 -115 4 -48 4 -49 -49 -99 -33 -30 -70 -55 -94 -61 -22 -6 -46 -13 -52
-15 -7 -2 -13 -11 -13 -21 0 -10 -18 -43 -40 -73 -22 -30 -45 -64 -51 -75 -5
-11 -26 -30 -44 -43 -31 -19 -35 -27 -35 -65 0 -25 -10 -60 -24 -88 -13 -25
-28 -62 -31 -83 -8 -41 -31 -56 -86 -56 -34 0 -34 1 -12 43 12 23 19 66 23
147 7 135 22 175 98 266 29 34 52 65 52 68 0 4 -13 0 -30 -9 -27 -14 -30 -14
-30 0 0 28 183 156 199 140 3 -4 -21 -31 -53 -61 -33 -30 -56 -54 -52 -54 56
0 195 170 227 278 7 23 16 42 21 42 5 0 23 -30 40 -66z m-2234 -145 c7 -26 11
-71 8 -109 -8 -123 -18 -345 -20 -425 -1 -63 -4 -80 -16 -80 -51 0 -79 298
-45 472 10 49 18 106 19 128 1 75 33 84 54 14z m2252 -149 c0 -5 -32 -45 -71
-87 -80 -88 -120 -151 -149 -238 -39 -118 -105 -158 -76 -47 43 163 198 382
271 382 14 0 25 -4 25 -10z m318 -66 c12 -19 20 -39 17 -43 -9 -15 -105 -34
-142 -28 -108 18 -65 107 52 107 46 0 52 -3 73 -36z m-203 -71 c19 -9 35 -21
35 -26 0 -4 -24 -34 -54 -65 -30 -31 -77 -95 -106 -141 -51 -84 -51 -85 -40
-129 6 -25 20 -63 31 -84 11 -22 18 -42 16 -44 -8 -8 -111 -22 -124 -17 -17 7
-26 59 -15 80 6 10 7 24 2 33 -5 9 -5 34 0 56 5 21 10 56 10 77 0 64 34 111
102 145 28 14 34 24 39 61 6 43 28 71 56 71 7 0 28 -8 48 -17z m196 -124 c16
-17 29 -35 29 -40 0 -17 -5 -24 -14 -21 -5 2 -24 -11 -41 -28 l-32 -31 -37 44
c-43 53 -45 71 -8 91 42 23 71 19 103 -15z m-1525 -235 c162 -62 238 -81 431
-109 91 -13 170 -28 175 -33 16 -16 -33 -42 -80 -42 -66 0 -181 27 -371 87
-186 58 -223 73 -258 106 -21 18 -30 37 -19 37 2 0 57 -20 122 -46z m1278
-356 c-44 -40 -119 -111 -167 -157 -48 -46 -91 -81 -94 -77 -3 3 29 54 72 113
43 60 92 127 109 151 30 42 30 42 94 42 l64 0 -78 -72z"/>
<path d="M1705 1280 c-11 -5 -32 -9 -47 -9 -52 -2 -75 -77 -43 -144 18 -38 98
-100 174 -135 47 -21 63 -24 123 -19 39 3 81 13 95 22 31 21 28 57 -7 65 -21
5 -29 19 -50 80 -27 78 -29 80 -102 95 -16 3 -28 12 -28 20 0 30 -69 45 -115
25z"/>
<path d="M1280 321 c0 -6 5 -13 10 -16 6 -4 8 -10 5 -15 -18 -29 241 -191 281
-176 8 3 14 -1 14 -9 0 -8 6 -15 14 -15 30 0 27 -23 -5 -56 l-33 -34 230 1
c126 1 220 3 209 6 -55 13 -245 78 -277 94 -48 24 -55 37 -26 48 23 10 23 10
-3 10 -15 1 -32 -6 -39 -14 -20 -24 -50 -17 -135 31 -44 25 -90 50 -101 54
-12 5 -47 29 -78 54 -58 48 -66 52 -66 37z"/>
</g>
</svg>
