<?xml version="1.0" standalone="no"?>
<!DOCTYPE svg PUBLIC "-//W3C//DTD SVG 20010904//EN"
 "http://www.w3.org/TR/2001/REC-SVG-20010904/DTD/svg10.dtd">
<svg version="1.0" xmlns="http://www.w3.org/2000/svg"
 width="1070.000000pt" height="710.000000pt" viewBox="0 0 1070.000000 710.000000"
 preserveAspectRatio="xMidYMid meet">
<metadata>
Created by potrace 1.16, written by Peter Selinger 2001-2019
</metadata>
<g transform="translate(0.000000,710.000000) scale(0.100000,-0.100000)"
fill="#000000" stroke="none">
<path d="M5958 7034 c-25 -25 -2 -30 180 -32 103 -1 212 -7 242 -13 30 -5 74
-13 97 -18 63 -12 133 -60 171 -116 l32 -50 -24 -3 c-13 -2 -31 -11 -41 -22
-16 -17 -14 -18 37 -25 92 -11 167 -43 193 -84 31 -46 60 -115 45 -106 -6 4
-17 1 -23 -7 -7 -8 -38 -24 -69 -37 -55 -22 -58 -22 -86 -6 -27 16 -30 16 -70
-4 -55 -28 -101 -27 -147 4 -20 14 -51 29 -69 32 -48 9 -56 20 -56 79 l0 54
-42 0 c-24 0 -61 -7 -83 -15 -22 -8 -56 -15 -75 -15 -19 -1 -30 -4 -23 -6 7
-3 9 -12 6 -20 -7 -18 -52 -18 -77 1 -11 8 -26 15 -33 15 -8 0 -30 7 -51 17
l-37 16 30 7 c18 4 -17 7 -84 9 -78 1 -122 6 -140 16 -14 8 -34 17 -43 21 -10
3 -20 15 -23 25 -7 23 -14 23 -39 4 -34 -26 -148 -13 -131 15 3 5 31 23 63 40
33 17 64 43 74 60 12 22 40 41 93 66 41 19 75 39 75 45 0 29 -156 -20 -204
-65 -50 -46 -70 -56 -124 -60 -73 -5 -124 -33 -136 -73 -8 -30 -12 -33 -50
-33 -23 0 -57 -8 -76 -19 -19 -10 -65 -20 -102 -23 -38 -3 -79 -13 -93 -22
-13 -9 -31 -16 -39 -16 -23 0 -123 -127 -141 -178 -8 -26 -15 -79 -15 -123 0
-45 -7 -95 -16 -120 -11 -31 -14 -62 -10 -104 l5 -60 -46 -35 c-61 -46 -84
-69 -108 -110 -11 -19 -27 -46 -37 -61 -17 -28 -43 -144 -59 -264 -11 -76 -27
-110 -59 -120 -11 -3 -20 -11 -20 -16 0 -5 -7 -9 -15 -9 -8 0 -15 -4 -15 -9 0
-5 -13 -14 -29 -19 -33 -12 -111 -78 -111 -96 -1 -6 -15 -20 -33 -31 -41 -26
-67 -96 -74 -195 -5 -77 -37 -215 -55 -237 -16 -20 -18 -248 -2 -275 7 -13 16
-30 19 -38 4 -8 11 -22 16 -30 5 -8 14 -26 19 -39 6 -14 20 -31 30 -38 11 -8
20 -25 20 -38 0 -19 7 -26 28 -31 15 -3 60 -15 101 -27 64 -19 77 -27 102 -63
26 -38 56 -54 102 -54 16 0 -55 59 -71 60 -20 0 -42 64 -51 149 l-8 76 -2 -62
c0 -34 -5 -64 -10 -68 -18 -11 -26 70 -26 260 1 209 10 302 27 271 6 -11 8
-50 3 -102 -4 -46 -3 -98 1 -116 7 -26 10 -13 14 64 3 59 10 102 18 110 20 20
46 -3 59 -55 15 -62 41 -97 106 -141 42 -29 69 -39 119 -46 49 -6 93 -22 193
-74 72 -36 155 -77 185 -90 197 -87 210 -94 231 -131 12 -19 29 -40 39 -45 25
-13 72 -13 107 1 64 25 160 2 207 -50 20 -22 74 -29 92 -11 24 24 254 23 254
-2 0 -5 -18 -40 -40 -78 -39 -66 -51 -110 -30 -110 6 0 10 9 10 19 0 10 21 51
47 90 52 78 58 82 206 121 44 11 92 27 109 36 29 15 30 15 66 -23 21 -21 50
-47 67 -59 l30 -21 -28 -40 c-34 -50 -263 -261 -332 -306 -79 -53 -111 -62
-215 -62 -90 0 -95 1 -98 22 -4 27 59 99 104 118 30 12 62 51 51 62 -3 2 -10
-5 -17 -16 -6 -12 -27 -30 -48 -40 -20 -11 -65 -42 -100 -70 -101 -82 -164
-88 -213 -22 -26 35 -43 43 -174 76 -149 37 -156 29 -17 -19 111 -38 167 -66
135 -66 -47 0 -407 107 -475 141 -48 24 -55 37 -26 48 23 10 23 10 -3 10 -15
1 -32 -6 -39 -14 -20 -24 -50 -17 -135 31 -44 25 -90 50 -101 54 -12 5 -47 29
-79 55 -53 44 -78 53 -59 23 5 -7 9 -19 10 -26 6 -38 245 -181 280 -168 8 3
14 -1 14 -9 0 -8 6 -15 14 -15 50 0 10 -53 -116 -157 -38 -30 -68 -59 -68 -64
0 -32 116 26 176 88 40 41 48 45 79 40 62 -10 215 -131 215 -170 0 -24 -44
-216 -71 -307 -14 -49 -31 -78 -66 -118 l-48 -52 -52 16 c-29 8 -67 14 -85 12
-30 -3 -27 -6 47 -37 44 -19 84 -38 89 -42 16 -14 -282 -509 -463 -769 -48
-69 -106 -156 -129 -195 -52 -89 -120 -259 -132 -333 -5 -31 -14 -82 -21 -112
-29 -136 13 -380 97 -564 25 -56 48 -107 51 -115 5 -12 -26 -13 -208 -8 -118
4 -256 13 -307 22 -353 58 -540 226 -629 565 -12 48 -17 109 -17 230 -1 164
-1 166 32 246 76 189 201 333 357 411 27 14 52 29 53 34 2 5 16 9 30 9 40 0
142 53 178 91 41 44 51 90 65 315 12 172 8 254 -10 225 -17 -27 -23 11 -24
142 -1 96 3 150 16 197 26 98 76 188 131 234 46 40 51 41 131 44 56 3 102 -1
146 -13 92 -25 336 -33 364 -11 18 14 9 15 -111 16 -106 0 -133 3 -137 15 -5
10 -28 15 -94 16 -137 3 -266 2 -288 -2 -28 -6 -69 -29 -78 -45 -4 -8 -15 -14
-22 -14 -8 0 -15 -4 -15 -10 0 -5 -3 -9 -7 -9 -27 4 -35 -1 -23 -16 9 -11 10
-18 1 -29 -10 -11 -18 -11 -54 2 -54 20 -93 10 -115 -28 -19 -33 -49 -45 -108
-41 -40 2 -43 0 -123 -86 -108 -116 -161 -195 -161 -240 0 -19 -8 -47 -19 -61
-10 -15 -21 -52 -25 -82 -4 -30 -14 -62 -22 -71 -9 -10 -15 -45 -16 -106 -2
-66 -6 -89 -15 -86 -7 3 -15 -7 -19 -22 -10 -41 1 -266 14 -274 7 -4 12 -45
13 -105 1 -78 5 -106 20 -130 23 -38 24 -55 3 -70 -8 -7 -18 -31 -21 -54 -3
-23 -11 -47 -19 -53 -7 -6 -11 -16 -8 -24 3 -7 -5 -20 -18 -29 -19 -14 -23
-27 -26 -91 -2 -41 -9 -75 -14 -75 -7 0 -8 -59 -4 -167 3 -93 6 -177 6 -188 1
-35 20 -95 30 -95 6 0 10 -13 10 -28 0 -35 46 -130 71 -145 11 -7 19 -18 19
-25 0 -8 16 -33 36 -58 l36 -44 -24 -28 c-14 -16 -31 -44 -38 -62 -12 -28 -11
-34 1 -44 12 -9 15 -49 15 -223 0 -117 -3 -210 -8 -207 -4 3 -14 -12 -23 -33
-9 -21 -25 -47 -35 -58 -50 -54 -68 -180 -30 -212 11 -10 20 -22 20 -29 0 -6
9 -19 20 -29 17 -16 18 -20 6 -27 -7 -4 -17 -20 -20 -34 -4 -15 -14 -33 -21
-41 -19 -19 -19 -32 0 -39 16 -7 21 -34 6 -34 -19 0 -33 -71 -26 -130 7 -57 9
-60 34 -60 15 0 31 8 39 20 11 19 120 80 142 80 5 0 10 -16 10 -35 0 -27 -6
-37 -27 -49 -27 -15 -25 -15 45 -16 l72 0 0 193 0 192 -38 30 c-35 29 -41 30
-124 28 l-88 -2 0 45 c0 84 44 134 116 134 53 0 95 -33 118 -91 22 -54 35
-199 36 -381 l0 -148 44 0 45 0 -6 263 -6 262 -36 55 c-44 66 -85 95 -156 110
-64 13 -66 17 -58 154 3 55 0 150 -5 211 -6 60 -9 111 -7 114 3 2 39 -19 82
-46 43 -28 93 -59 110 -69 38 -21 38 -21 16 -65 -13 -24 -18 -56 -17 -109 0
-85 29 -163 88 -234 44 -55 69 -104 116 -238 22 -62 43 -120 47 -128 3 -8 7
-24 8 -35 0 -11 18 -71 40 -133 l38 -112 45 0 c31 0 43 4 39 12 -87 200 -117
276 -153 387 -43 132 -52 171 -36 171 22 0 104 -64 153 -119 79 -90 149 -211
193 -339 l40 -112 33 0 32 0 -25 62 c-14 35 -35 86 -46 113 -12 28 -36 83 -55
124 -18 41 -31 76 -29 78 13 13 146 -247 170 -332 l12 -40 152 -3 152 -3 1 43
c0 24 5 52 10 63 7 16 8 13 4 -12 -2 -18 -2 -46 2 -63 4 -24 11 -30 30 -30
l25 0 -6 83 c-4 45 -11 192 -17 327 -5 135 -12 256 -15 270 -3 14 -17 71 -31
128 -20 78 -23 106 -15 114 12 12 40 8 275 -39 43 -9 32 14 -21 41 -26 13 -95
41 -152 60 -57 20 -109 41 -116 47 -6 5 -15 26 -18 45 -4 19 -32 92 -62 161
-30 69 -64 162 -74 205 -55 232 -27 474 81 692 55 109 149 264 182 301 72 78
321 476 422 675 19 37 31 50 41 46 33 -13 349 -28 374 -18 32 13 21 16 -95 31
-134 17 -255 42 -255 53 0 6 9 21 19 35 11 13 23 43 26 66 26 193 38 269 51
316 18 62 6 60 169 16 85 -23 126 -28 271 -32 165 -5 175 -4 302 26 178 42
185 42 212 -14 15 -31 48 -66 116 -121 52 -42 94 -78 94 -80 0 -1 -35 -10 -77
-20 -43 -9 -82 -19 -87 -22 -25 -14 37 -17 138 -6 l111 12 48 -31 c59 -37 53
-43 -64 -56 -186 -22 -362 -118 -508 -278 -54 -59 -93 -124 -139 -233 -10 -24
-11 -23 -11 13 -1 48 -13 41 -48 -26 -81 -161 -99 -307 -68 -562 9 -77 19
-201 22 -275 l5 -135 -150 -304 c-105 -212 -162 -340 -187 -420 -55 -175 -48
-166 -131 -163 -163 6 -296 41 -524 136 -89 37 -124 44 -118 24 6 -20 294
-161 466 -228 193 -75 242 -97 242 -109 0 -26 -24 -118 -34 -130 -6 -8 -29
-27 -50 -43 -44 -32 -60 -26 -71 23 -9 41 -61 98 -110 120 -76 35 -179 16
-234 -44 -20 -22 -24 -40 -31 -134 -6 -76 -16 -128 -34 -176 -28 -74 -46 -192
-46 -299 l0 -68 150 0 149 0 6 37 c12 79 36 141 70 180 37 44 165 143 184 143
7 0 11 -29 11 -88 0 -104 -9 -120 -112 -207 -38 -31 -68 -58 -68 -61 0 -2 50
-4 110 -4 102 0 110 1 110 19 0 22 57 74 72 65 5 -3 7 -17 4 -29 -14 -54 -9
-55 191 -55 l185 0 110 57 c122 64 132 62 125 -14 l-5 -43 81 0 80 0 44 47
c42 46 45 47 59 29 8 -11 14 -32 14 -48 l0 -28 110 0 c61 0 110 4 110 9 0 4
-13 26 -29 47 -17 22 -38 50 -49 64 -10 14 -25 36 -32 50 -7 14 -35 50 -62 79
-31 36 -48 64 -48 81 0 30 50 87 118 135 47 32 82 84 82 119 0 12 11 33 25 46
14 13 25 29 25 37 0 7 4 13 9 13 5 0 12 14 16 30 5 21 19 39 43 54 45 28 73
73 53 85 -10 7 -10 9 2 14 8 3 20 22 27 41 6 20 15 36 19 36 17 0 52 44 48 60
-2 10 4 25 14 34 11 9 19 27 19 40 0 14 10 30 25 40 14 9 25 24 25 34 0 27 25
89 43 110 9 10 22 45 27 78 13 71 48 154 67 154 9 0 13 16 13 54 0 46 4 58 25
74 19 15 25 29 25 61 0 23 4 41 9 41 11 0 36 108 27 117 -2 3 13 28 35 55 42
53 46 64 27 70 -9 3 -8 22 5 76 50 208 57 385 22 585 -23 131 -48 189 -105
240 -57 51 -119 73 -185 63 -196 -26 -327 -221 -328 -486 -1 -193 59 -327 187
-416 l28 -20 -30 -60 c-42 -84 -82 -200 -82 -237 0 -42 -22 -73 -68 -96 -20
-10 -148 -55 -284 -101 -234 -79 -249 -83 -266 -67 -26 24 -70 21 -130 -9 -74
-37 -96 -72 -88 -137 7 -65 71 -346 92 -409 19 -60 54 -88 106 -88 50 0 87 21
118 68 21 29 25 48 26 109 0 40 5 77 10 82 12 12 191 91 205 91 24 0 -40 -121
-143 -269 -32 -47 -58 -89 -58 -95 0 -6 -16 -21 -35 -34 -19 -12 -35 -26 -35
-32 0 -14 -209 -199 -320 -284 -52 -40 -126 -92 -165 -116 -38 -23 -87 -58
-109 -77 -21 -19 -61 -46 -89 -59 -63 -29 -77 -20 -77 45 0 29 3 41 9 33 5 -8
11 16 15 65 12 144 47 351 82 495 38 154 182 601 213 658 32 58 218 502 229
545 6 22 16 96 22 165 21 243 50 334 143 457 86 115 318 291 462 353 116 50
243 61 432 39 75 -9 107 -18 149 -42 51 -29 54 -34 88 -124 20 -51 36 -97 36
-101 0 -5 7 -23 16 -40 18 -37 29 -351 14 -418 -5 -23 -12 -56 -15 -75 -8 -57
-27 -122 -45 -159 -10 -19 -20 -55 -23 -79 l-5 -43 29 28 c16 16 27 34 25 41
-3 7 1 18 8 25 17 18 35 75 34 112 0 15 5 32 12 36 7 4 10 23 9 43 -2 19 2 41
8 49 8 9 10 64 7 183 -4 175 -9 226 -24 254 -12 22 -38 105 -55 171 -8 34 -22
62 -37 73 -13 10 -35 29 -49 42 -14 13 -42 32 -63 41 -22 11 -36 25 -36 37 0
15 -4 17 -22 10 -62 -21 -117 8 -139 74 -16 50 -2 60 55 37 30 -13 53 -31 68
-56 13 -21 26 -38 31 -38 33 -1 -49 100 -108 132 -76 42 -85 45 -160 58 -124
20 -125 21 -125 39 0 30 -68 81 -108 81 -10 0 -44 21 -75 48 -31 26 -83 68
-116 95 l-60 48 5 62 c10 141 11 143 82 220 36 40 112 120 169 178 57 58 103
111 103 116 0 19 49 63 70 63 11 0 32 11 46 25 14 14 30 25 35 25 19 0 158
150 170 183 7 21 24 39 48 50 25 13 45 35 68 76 18 32 48 77 68 101 19 23 35
51 35 61 0 11 11 31 25 45 14 14 25 31 25 38 0 21 74 209 93 236 11 16 17 43
17 76 0 28 7 69 16 90 10 22 18 75 20 124 2 46 9 89 14 94 11 11 14 109 3 119
-17 18 -34 -40 -40 -139 -3 -60 -12 -120 -20 -134 -7 -14 -13 -33 -13 -42 0
-31 -72 -293 -81 -296 -5 -2 -9 -11 -9 -21 0 -45 -154 -306 -212 -359 -22 -20
-26 -21 -32 -7 -3 9 -3 21 0 27 25 40 21 257 -5 266 -13 4 -15 34 -2 48 12 11
49 79 172 312 50 95 93 171 95 169 8 -8 -47 -149 -103 -267 -93 -193 -102
-222 -45 -132 75 117 138 266 193 457 22 77 49 152 60 168 11 15 17 32 14 38
-14 21 -23 124 -12 137 5 7 12 46 15 87 4 63 1 79 -17 108 -11 19 -21 48 -21
65 0 47 -42 177 -88 270 -35 73 -308 366 -335 360 -8 -2 -33 16 -56 40 -43 44
-81 56 -81 24 0 -12 26 -36 70 -66 140 -96 354 -336 407 -456 14 -30 29 -64
34 -75 32 -73 52 -321 30 -391 -5 -16 -17 -58 -27 -94 -10 -36 -27 -80 -36
-100 -10 -19 -18 -41 -18 -50 0 -9 -4 -20 -8 -25 -5 -6 -17 -32 -27 -60 -10
-27 -21 -54 -25 -58 -4 -4 -10 68 -14 160 -13 300 -25 390 -84 598 -47 168
-145 361 -253 496 -32 41 -64 89 -70 107 -7 21 -16 31 -24 28 -8 -3 -43 18
-79 47 -90 72 -153 117 -164 117 -5 0 -15 7 -22 15 -7 8 -23 15 -35 15 -12 0
-51 10 -86 21 -55 18 -96 22 -279 26 -118 3 -218 2 -222 -3z m-282 -798 c221
-74 367 -157 484 -275 67 -67 126 -142 99 -126 -7 5 -43 33 -78 63 -168 142
-522 339 -644 358 -29 5 -36 1 -72 -46 -47 -60 -178 -178 -212 -191 -20 -7
-23 -15 -23 -65 0 -64 -3 -68 -159 -199 -46 -38 -117 -109 -159 -157 -79 -93
-97 -99 -80 -25 23 104 114 227 267 360 55 48 146 137 203 197 57 61 117 119
133 130 45 29 96 24 241 -24z m1380 -55 c68 -31 -14 -56 -133 -42 -112 14
-126 14 -117 -1 5 -8 -17 -9 -86 -4 -75 6 -102 4 -140 -10 -53 -19 -80 -14
-80 15 0 11 -4 21 -9 23 -5 2 -4 11 4 21 12 17 14 17 46 -2 45 -27 74 -26 100
3 21 24 21 24 182 19 146 -5 164 -4 177 12 13 16 15 16 23 -3 5 -11 20 -25 33
-31z m-1295 -82 c210 -107 407 -249 500 -361 73 -88 66 -103 -16 -38 -117 92
-210 130 -272 109 -81 -26 1 -104 167 -158 55 -18 76 -33 142 -98 83 -82 108
-90 108 -31 l1 33 26 -50 c17 -32 26 -66 26 -95 0 -46 -28 -115 -57 -139 -17
-14 -18 -13 -30 41 -4 15 -17 39 -30 53 -13 14 -30 48 -36 75 -20 85 -152 189
-240 190 -38 0 -84 -19 -81 -34 3 -14 -81 -50 -118 -51 -19 0 -36 -5 -38 -11
-5 -14 37 -23 144 -32 45 -4 88 -13 95 -20 13 -13 19 -132 6 -132 -4 0 -30 21
-59 46 -28 25 -53 43 -56 40 -6 -6 44 -71 79 -102 58 -52 254 -129 303 -118
l30 6 -25 -27 c-14 -15 -52 -45 -85 -68 -89 -60 -195 -173 -237 -253 -20 -38
-44 -103 -53 -144 -16 -71 -21 -79 -81 -137 -61 -61 -64 -63 -116 -63 -29 0
-87 9 -128 21 -240 66 -725 309 -809 404 -36 41 -38 63 -16 188 40 229 181
486 341 623 59 51 118 94 127 94 3 0 7 -10 11 -22 12 -47 139 -104 205 -93 24
4 42 2 46 -4 12 -20 35 -12 46 15 6 18 6 45 -1 82 -8 47 -8 58 5 65 36 20 -4
67 -99 114 l-58 30 38 31 c21 18 42 32 46 32 12 0 66 -78 93 -136 28 -58 35
-63 61 -37 21 22 13 114 -15 179 -11 24 -18 44 -15 44 3 0 59 -27 125 -61z
m1402 -169 c27 -8 37 -16 35 -28 -2 -13 -23 -19 -93 -28 -106 -13 -183 -32
-192 -47 -4 -6 4 -7 23 -3 51 13 195 25 226 19 16 -3 33 -15 39 -25 16 -30 17
-354 2 -369 -7 -7 -13 -21 -13 -31 0 -13 -8 -18 -28 -18 -15 0 -38 -7 -50 -16
-40 -28 -22 -74 30 -74 20 0 28 -5 28 -18 0 -20 -29 -64 -30 -45 0 18 -36 26
-60 13 -45 -24 -9 -90 42 -74 15 5 20 3 16 -7 -44 -111 -50 -115 -95 -70 -21
20 -32 23 -71 18 -39 -4 -52 -12 -83 -48 l-37 -44 -5 80 c-3 44 -10 109 -15
145 -16 96 -71 310 -92 350 -10 19 -21 50 -25 68 -4 19 -27 56 -51 83 -51 57
-58 98 -21 121 35 23 121 49 195 58 83 11 274 5 325 -10z m-2503 -453 c0 -2
-25 -17 -56 -32 -89 -45 -114 -105 -73 -171 16 -27 19 -42 14 -79 -7 -42 -5
-46 22 -61 16 -10 42 -34 58 -55 33 -45 225 -234 270 -267 19 -14 23 -20 10
-16 -56 19 -268 203 -334 291 -122 163 -119 306 9 374 30 16 80 26 80 16z
m-202 -99 c-16 -70 -4 -182 26 -231 35 -58 147 -184 233 -261 86 -77 150 -121
298 -206 157 -90 155 -89 98 -83 -83 8 -144 34 -253 107 -58 40 -127 84 -153
100 -114 66 -260 238 -305 359 -36 96 -37 121 -8 177 28 53 57 89 67 83 4 -1
2 -22 -3 -45z m2124 -84 c17 -37 33 -89 36 -115 4 -48 4 -49 -49 -99 -33 -30
-70 -55 -94 -61 -22 -6 -46 -13 -52 -15 -7 -2 -13 -11 -13 -21 0 -10 -18 -43
-40 -73 -22 -30 -45 -64 -51 -75 -5 -11 -26 -30 -44 -43 -31 -19 -35 -27 -35
-65 0 -25 -10 -60 -24 -88 -13 -25 -28 -62 -31 -83 -8 -41 -31 -56 -86 -56
-34 0 -34 1 -12 43 12 23 19 66 23 147 7 135 22 175 98 266 29 34 52 65 52 68
0 4 -13 0 -30 -9 -27 -14 -30 -14 -30 0 0 28 183 156 199 140 3 -4 -21 -31
-53 -61 -33 -30 -56 -54 -52 -54 56 0 195 170 227 278 7 23 16 42 21 42 5 0
23 -30 40 -66z m-2234 -145 c7 -26 11 -71 8 -109 -8 -123 -18 -345 -20 -425
-1 -63 -4 -80 -16 -80 -51 0 -79 298 -45 472 10 49 18 106 19 128 1 75 33 84
54 14z m2252 -149 c0 -5 -32 -45 -71 -87 -80 -88 -120 -151 -149 -238 -39
-118 -105 -158 -76 -47 43 163 198 382 271 382 14 0 25 -4 25 -10z m318 -66
c12 -19 20 -39 17 -43 -9 -15 -105 -34 -142 -28 -108 18 -65 107 52 107 46 0
52 -3 73 -36z m-203 -71 c19 -9 35 -21 35 -26 0 -4 -24 -34 -54 -65 -30 -31
-77 -95 -106 -141 -51 -84 -51 -85 -40 -129 6 -25 20 -63 31 -84 11 -22 18
-42 16 -44 -8 -8 -111 -22 -124 -17 -17 7 -26 59 -15 80 6 10 7 24 2 33 -5 9
-5 34 0 56 5 21 10 56 10 77 0 64 34 111 102 145 28 14 34 24 39 61 6 43 28
71 56 71 7 0 28 -8 48 -17z m196 -124 c16 -17 29 -35 29 -40 0 -17 -5 -24 -14
-21 -5 2 -24 -11 -41 -28 l-32 -31 -37 44 c-43 53 -45 71 -8 91 42 23 71 19
103 -15z m-1525 -235 c162 -62 238 -81 431 -109 91 -13 170 -28 175 -33 16
-16 -33 -42 -80 -42 -66 0 -181 27 -371 87 -186 58 -223 73 -258 106 -21 18
-30 37 -19 37 2 0 57 -20 122 -46z m1278 -356 c-44 -40 -115 -107 -159 -148
-44 -42 -89 -82 -100 -90 -19 -15 -19 -15 -1 15 10 17 62 90 115 163 l96 132
63 0 64 0 -78 -72z m-2904 -520 c0 -13 -7 -61 -15 -108 -18 -101 -19 -202 -4
-217 6 -6 13 -33 14 -60 1 -30 16 -80 38 -128 19 -44 58 -132 86 -195 38 -85
51 -127 51 -162 0 -56 -15 -70 -105 -93 -58 -16 -155 -62 -155 -75 0 -4 -17
-12 -38 -18 -21 -7 -67 -30 -102 -52 -34 -23 -68 -39 -75 -36 -7 2 -15 24 -19
48 -8 61 -11 516 -3 525 4 3 7 25 7 48 0 22 5 46 11 52 6 6 17 41 25 78 23
108 105 256 190 342 39 40 76 73 83 73 6 0 11 -10 11 -22z m1440 -456 c0 -22
-120 -218 -385 -627 -199 -308 -226 -353 -275 -457 -57 -124 -70 -185 -70
-339 1 -225 25 -358 95 -524 59 -138 72 -182 56 -198 -19 -19 -45 5 -53 51 -4
22 -13 53 -21 69 -8 15 -41 98 -73 183 l-59 155 0 200 c0 178 2 208 23 276 12
41 22 85 22 97 0 12 8 30 18 41 9 10 36 54 60 97 23 44 70 113 104 154 92 112
286 414 472 733 31 53 63 97 71 97 8 0 15 -4 15 -8z m1725 -426 c-59 -83 -93
-159 -102 -225 l-8 -54 -32 27 c-38 32 -41 55 -13 81 16 14 20 31 20 76 0 67
13 102 47 124 21 14 79 30 120 34 7 1 -8 -28 -32 -63z m317 -216 c10 -14 20
-39 21 -55 2 -29 0 -30 -47 -36 -50 -5 -57 -11 -113 -85 l-22 -29 0 45 c-1 84
68 194 118 188 13 -2 32 -14 43 -28z m-153 -715 c35 -18 54 -65 41 -100 -11
-29 -26 -31 -66 -10 -16 8 -46 15 -66 15 -46 0 -52 10 -34 54 23 55 69 70 125
41z m-69 -152 c16 -9 33 -27 39 -40 15 -33 14 -85 -2 -107 -13 -17 -17 -17
-84 13 -39 17 -76 31 -82 31 -33 0 -11 63 35 99 32 25 57 26 94 4z m-80 -183
c43 -22 60 -46 60 -84 0 -28 -20 -78 -29 -74 -4 2 -31 15 -61 30 -30 16 -67
29 -82 30 -24 2 -28 7 -28 31 0 34 48 87 80 87 11 0 38 -9 60 -20z m-810 -68
c0 -5 -10 -17 -22 -28 -35 -31 -78 -106 -78 -135 0 -16 7 -32 17 -37 15 -9 15
-13 -5 -53 l-21 -42 -12 29 c-6 16 -13 67 -16 113 l-6 83 36 33 c20 19 49 36
64 38 16 2 31 5 36 6 4 0 7 -3 7 -7z m742 -112 c70 -46 73 -52 48 -99 -23 -47
-32 -49 -67 -21 -15 11 -50 27 -80 36 -29 8 -53 20 -53 25 0 5 11 27 25 49 32
50 63 52 127 10z m-222 -69 c0 -56 -302 -486 -451 -644 -90 -95 -89 -73 2 28
87 98 151 189 257 366 117 196 192 293 192 250z m178 -106 c26 -31 25 -65 -4
-110 l-16 -24 -36 28 c-21 16 -55 34 -77 41 -22 6 -46 13 -54 16 -11 3 -10 10
4 32 30 46 46 54 104 49 44 -3 59 -9 79 -32z m-723 -45 c3 -5 -1 -24 -10 -41
-39 -75 18 -109 92 -53 l32 24 6 -34 c8 -42 0 -71 -28 -96 -28 -27 -69 -25
-96 4 -21 22 -71 158 -71 191 0 17 65 21 75 5z m-2161 -25 c44 -9 132 -18 197
-22 88 -4 116 -9 112 -19 -5 -14 15 -19 142 -34 120 -15 153 -26 169 -58 29
-56 86 -258 96 -339 10 -80 3 -277 -16 -470 l-6 -63 -38 113 c-43 126 -104
288 -148 392 -25 58 -30 83 -29 140 1 53 -3 78 -17 101 -67 112 -246 66 -246
-64 0 -42 13 -63 87 -144 82 -90 289 -568 245 -568 -5 0 -47 75 -93 168 -123
248 -192 344 -353 496 -157 149 -176 179 -184 304 -2 45 -3 82 -1 82 2 0 40
-7 83 -15z m2769 -65 c37 -29 44 -77 18 -134 -23 -52 -38 -57 -70 -22 -13 13
-45 34 -72 45 -27 12 -49 24 -49 27 0 12 24 51 48 77 32 34 87 37 125 7z
m-132 -165 c32 -17 69 -69 69 -96 0 -9 -9 -27 -19 -40 l-19 -24 -29 26 c-15
14 -49 38 -75 53 -53 29 -58 46 -28 76 24 24 60 26 101 5z m-71 -153 c41 -31
53 -65 36 -104 -7 -18 -21 -42 -29 -53 -15 -20 -16 -20 -44 6 -15 15 -41 35
-58 45 -67 40 -68 42 -32 91 29 42 34 44 67 39 19 -3 46 -14 60 -24z m-122
-177 c39 -46 26 -115 -23 -115 -19 0 -127 80 -133 100 -2 5 11 19 30 30 43 27
94 21 126 -15z"/>
<path d="M5105 5180 c-11 -5 -32 -9 -47 -9 -52 -2 -75 -77 -43 -144 18 -38 98
-100 174 -135 47 -21 63 -24 123 -19 39 3 81 13 95 22 31 21 28 57 -7 65 -21
5 -29 19 -50 80 -27 78 -29 80 -102 95 -16 3 -28 12 -28 20 0 30 -69 45 -115
25z"/>
<path d="M4450 3662 c0 -39 312 -222 444 -262 145 -43 170 -29 49 27 -205 94
-335 158 -404 199 -78 45 -89 50 -89 36z"/>
</g>
</svg>
