<svg width="32.000000pt" height="30.000000pt" viewBox="0 0 32.000000 30.000000" xmlns="http://www.w3.org/2000/svg">
  <g transform="translate(0.000000,30.000000) scale(0.100000,-0.100000)" fill="#b1b9b6" stroke="none">
    <path d="M27 293 l-27 -4 0 -65 0 -64 19 0 19 0 6 35 c4 19 11 37 16 40 l10 6
0 -10 0 -11 20 0 20 0 0 15 0 15 -22 1 -23 1 37 16 c21 10 38 20 38 25 0 4
-19 6 -42 6 -24 -1 -55 -4 -71 -6z m-7 -68 c0 -3 -2 -5 -5 -5 -3 0 -5 2 -5 5
0 3 2 5 5 5 3 0 5 -2 5 -5z" />
    <path d="M170 293 c0 -5 25 -19 55 -33 l55 -25 0 -22 0 -22 20 -11 20 -11 0
66 0 65 -29 0 -29 0 -5 -12 -5 -13 -1 13 -1 12 -40 0 c-22 0 -40 -3 -40 -7z" />
    <path d="M310 120 l0 -30 -9 0 c-5 0 -12 -16 -15 -35 -4 -19 -11 -35 -16 -35
-6 0 -10 -4 -10 -10 l0 -10 30 0 30 0 0 75 c0 41 -2 75 -5 75 -3 0 -5 -13 -5
-30z" />
    <path d="M0 70 l0 -70 45 0 45 0 0 21 0 21 -19 -5 c-10 -2 -25 -1 -32 4 l-14
9 13 0 12 0 0 15 c0 9 -7 18 -15 21 l-15 6 0 24 0 24 -10 0 -10 0 0 -70z" />
  </g>
  <g transform="translate(0.000000,30.000000) scale(0.100000,-0.100000)" fill="#bbb7b8" stroke="none">
    <path d="M0 291 c0 -5 10 -11 22 -14 l22 -6 12 10 12 10 6 -10 6 -9 -12 -5
-13 -4 8 -9 8 -8 9 14 c5 8 6 18 3 24 l-6 9 17 -6 17 -7 -6 10 -6 10 -50 0
-49 0 0 -9z" />
    <path d="M185 290 l-6 -10 16 0 16 0 -6 10 c-3 6 -8 10 -10 10 -2 0 -7 -4 -10
-10z" />
    <path d="M231 287 c-6 -8 -8 -16 -5 -20 3 -3 13 -3 22 0 l15 6 -6 -10 -6 -10
14 -19 c8 -10 15 -26 15 -35 0 -9 9 -24 20 -34 l20 -18 0 26 0 27 -12 -2 -12
-3 -1 15 c-1 8 5 24 12 35 7 11 13 27 13 37 l0 18 -11 0 -11 0 5 -13 c3 -8 2
-20 -3 -27 l-8 -13 -11 7 c-6 4 -11 16 -11 27 l0 19 -14 0 c-7 0 -19 -6 -25
-13z m9 -12 c0 -3 -2 -5 -5 -5 -3 0 -5 2 -5 5 0 3 2 5 5 5 3 0 5 -2 5 -5z m30
-20 c0 -3 -2 -5 -5 -5 -3 0 -5 2 -5 5 0 3 2 5 5 5 3 0 5 -2 5 -5z" />
    <path d="M120 275 l0 -15 15 0 15 0 0 15 0 15 -15 0 -15 0 0 -15z" />
    <path d="M2 220 c1 -17 4 -30 7 -30 2 0 10 8 18 18 l14 17 -7 -14 -7 -14 12 7
c7 4 11 15 9 23 l-3 16 -23 3 -22 4 2 -30z" />
    <path d="M0 155 c0 -8 5 -15 10 -15 6 0 10 7 10 15 0 8 -4 15 -10 15 -5 0 -10
-7 -10 -15z" />
    <path d="M312 110 l0 -35 5 18 c2 9 2 25 0 35 l-5 17 0 -35z" />
    <path d="M9 125 c-3 -6 -6 -22 -7 -37 l-2 -28 9 0 c5 0 11 6 13 13 3 6 2 23
-2 37 l-6 25 -5 -10z" />
    <path d="M280 56 l0 -24 20 5 c11 3 20 7 20 10 0 6 -28 33 -34 33 -3 0 -6 -11
-6 -24z" />
    <path d="M33 63 c-7 -2 -13 -11 -13 -18 0 -7 7 -15 15 -19 l15 -5 0 24 c0 14
-1 25 -2 24 -2 0 -9 -3 -15 -6z" />
    <path d="M0 40 c0 -7 3 -10 7 -7 3 4 3 10 0 14 -4 3 -7 0 -7 -7z" />
    <path d="M263 23 l-53 -4 0 -9 0 -9 53 1 54 1 0 14 c0 7 -1 12 -1 11 -1 -1
-25 -3 -53 -5z" />
    <path d="M60 8 l0 -8 65 0 65 0 0 11 0 10 -65 -2 -65 -2 0 -9z" />
    <path d="M8 3 c7 -3 16 -2 19 1 4 3 -2 6 -13 5 l-19 -1 13 -5z" />
  </g>
  <g transform="translate(0.000000,30.000000) scale(0.100000,-0.100000)" fill="#18191e" stroke="none">
    <path d="M183 265 c-7 -8 -13 -21 -13 -30 l0 -15 14 0 14 0 6 -25 c4 -14 11
-25 16 -25 6 0 10 -7 10 -16 0 -8 6 -22 14 -30 l14 -14 -5 -20 -5 -20 16 0
c10 0 26 5 37 10 l19 11 0 19 0 20 -17 1 -18 1 13 5 c6 2 12 11 12 19 0 8 -4
14 -9 14 -5 0 -15 19 -23 42 l-13 43 -17 3 -18 3 0 -15 c0 -9 5 -16 10 -16 6
0 10 -7 10 -15 0 -8 -4 -15 -10 -15 -5 0 -10 5 -10 10 0 6 -7 10 -15 10 l-15
0 0 15 c0 8 5 15 10 15 6 0 10 7 10 15 l0 15 -12 0 c-7 -1 -19 -7 -25 -15z" />
    <path d="M50 230 c0 -11 -4 -20 -10 -20 -5 0 -10 -7 -10 -15 l0 -15 15 0 15 0
0 15 c0 8 5 15 10 15 6 0 10 9 10 20 l0 20 -15 0 -15 0 0 -20z" />
    <path d="M30 157 c0 -7 5 -18 12 -25 7 -7 20 -12 30 -12 l18 0 0 11 c0 7 -8
18 -17 25 -10 7 -24 14 -30 14 -7 0 -13 -6 -13 -13z" />
    <path d="M10 105 l0 -15 15 0 15 0 0 -19 0 -19 23 -6 c12 -3 30 -6 40 -6 l17
0 0 15 0 15 -21 0 -21 0 -5 19 -5 19 -21 6 c-12 3 -25 6 -29 6 -5 0 -8 -7 -8
-15z" />
    <path d="M210 63 l0 -9 -40 4 -40 4 0 -16 0 -16 29 0 29 0 4 -11 3 -10 48 12
47 13 0 13 0 13 -17 0 c-10 0 -28 3 -40 6 l-23 6 0 -9z" />
  </g>
  <g transform="translate(0.000000,30.000000) scale(0.100000,-0.100000)" fill="#888f94" stroke="none">
    <path d="M105 286 c-17 -7 -36 -20 -44 -29 l-13 -17 12 0 12 0 -6 -16 -6 -16
22 6 c13 3 29 6 36 6 l12 0 0 31 0 30 10 -6 10 -6 0 15 c0 9 -3 16 -7 16 -5
-1 -22 -7 -38 -14z m-8 -53 c-4 -3 -10 -3 -14 0 -3 4 0 7 7 7 7 0 10 -3 7 -7z" />
    <path d="M222 264 l4 -19 18 3 18 3 -7 -10 -6 -11 15 0 c9 0 16 2 16 4 0 3
-14 15 -31 27 l-31 22 4 -19z" />
    <path d="M30 186 c0 -9 5 -16 10 -16 6 0 10 4 10 9 0 6 -4 13 -10 16 l-10 6 0
-15z" />
    <path d="M77 183 l-18 -5 3 -16 3 -16 33 -10 c18 -5 34 -7 36 -5 3 2 7 16 11
32 l7 27 -28 -1 c-16 -1 -37 -3 -47 -6z" />
    <path d="M280 176 l0 -16 16 0 16 0 -4 12 c-2 6 -10 14 -16 16 l-12 4 0 -16z" />
    <path d="M210 165 l0 -15 15 0 15 0 0 15 0 15 -15 0 -15 0 0 -15z" />
    <path d="M4 134 c3 -9 6 -22 6 -30 0 -8 4 -14 8 -14 4 0 9 14 10 30 l2 30 -16
0 -16 0 6 -16z" />
    <path d="M160 130 l0 -20 15 0 15 0 0 20 0 20 -15 0 -15 0 0 -20z" />
    <path d="M110 75 l0 -15 15 0 15 0 0 15 0 15 -15 0 -15 0 0 -15z" />
    <path d="M273 59 l5 -20 -14 -6 c-8 -3 -14 -9 -14 -14 0 -5 11 -9 23 -9 l24 0
-1 35 -1 35 -14 0 -13 0 5 -21z" />
    <path d="M61 43 l-13 -15 11 -11 11 -11 0 12 c0 7 7 12 15 12 8 0 15 -4 15
-10 0 -5 7 -10 15 -10 8 0 15 3 15 6 0 9 -23 29 -40 36 l-15 5 -14 -14z" />
    <path d="M160 17 l0 -14 15 0 15 0 0 14 0 13 -15 0 -15 0 0 -13z" />
  </g>
  <g transform="translate(0.000000,30.000000) scale(0.100000,-0.100000)" fill="#22272a" stroke="none">
    <path d="M206 254 l-7 -26 12 -14 11 -14 -8 -1 c-5 -1 7 -4 26 -8 l35 -6 3
-32 3 -33 -10 0 c-6 0 -11 -7 -11 -16 l0 -15 10 6 10 6 0 -11 0 -12 -12 5 c-7
2 -21 0 -31 -5 l-18 -9 6 -9 6 -10 -17 7 -17 6 6 -17 c4 -10 7 -22 7 -27 0 -5
6 -9 14 -9 8 0 17 7 20 16 l6 15 -12 -7 -11 -7 7 11 c4 7 17 12 29 12 l23 0 1
20 c1 11 9 35 17 52 9 17 16 35 16 40 0 4 -7 8 -15 8 -8 0 -14 3 -14 8 1 4 1
17 0 30 l-1 22 -16 0 -15 0 7 -11 6 -11 -18 4 -19 3 -1 20 c-1 11 -2 26 -3 33
-1 6 -5 12 -10 12 -5 0 -12 -12 -15 -26z m94 -99 c0 -3 -2 -5 -5 -5 -3 0 -5 2
-5 5 0 3 2 5 5 5 3 0 5 -2 5 -5z" />
    <path d="M43 162 l1 -19 13 0 13 0 0 19 0 18 -14 0 -15 0 2 -18z" />
    <path d="M227 165 l5 -14 16 6 15 6 -6 -17 -7 -17 10 6 c6 3 10 14 10 23 l0
17 -24 1 -25 2 6 -13z" />
    <path d="M10 121 c0 -5 6 -12 13 -14 l12 -5 -12 -1 c-7 -1 -13 -5 -13 -11 0
-5 7 -10 15 -10 l15 0 0 25 0 25 -15 0 c-8 0 -15 -4 -15 -9z" />
    <path d="M54 98 c1 -7 6 -19 10 -27 l9 -14 -16 6 -17 6 0 -19 0 -20 19 0 19 0
5 20 c3 11 3 29 0 40 l-5 20 -13 0 -13 0 2 -12z" />
    <path d="M120 45 l0 -15 13 0 14 0 0 15 0 15 -14 0 -13 0 0 -15z" />
  </g>
  <g transform="translate(0.000000,30.000000) scale(0.100000,-0.100000)" fill="#414140" stroke="none">
    <path d="M58 249 c-10 -5 -18 -17 -18 -24 l0 -15 15 0 14 0 -6 17 -6 16 11 -7
12 -7 0 15 c0 9 -1 16 -2 16 -2 0 -11 -5 -20 -11z" />
    <path d="M223 207 l0 -14 30 0 30 0 -19 14 c-10 7 -23 13 -29 13 -7 0 -12 -6
-12 -13z" />
    <path d="M25 168 c-3 -7 -4 -30 -2 -50 l2 -38 11 0 c7 0 14 6 17 14 l5 14 26
-5 26 -5 0 16 c0 16 -11 20 -39 16 -8 -1 -17 4 -22 11 l-8 13 11 13 10 13 -16
0 c-9 0 -19 -6 -21 -12z" />
    <path d="M283 163 c4 -3 10 -3 14 0 3 4 0 7 -7 7 -7 0 -10 -3 -7 -7z" />
    <path d="M305 150 l-6 -10 -11 6 -10 7 7 -23 7 -23 -9 6 -10 6 5 -25 4 -25 11
4 c6 2 13 9 15 17 l5 13 -12 -7 -11 -7 6 15 6 16 9 -6 9 -5 0 25 c0 14 -2 26
-4 26 -3 0 -8 -5 -11 -10z" />
    <path d="M217 83 l-18 -5 -10 -25 c-5 -14 -8 -28 -5 -30 2 -2 16 8 30 22 l27
27 14 -6 14 -5 -6 15 c-3 7 -10 13 -17 13 -6 -1 -19 -3 -29 -6z" />
    <path d="M106 54 c-3 -9 -6 -18 -6 -20 0 -2 6 -4 14 -4 8 0 17 7 20 16 3 9 6
18 6 20 0 2 -6 4 -14 4 -8 0 -17 -7 -20 -16z" />
    <path d="M40 35 c0 -8 4 -15 9 -15 6 0 12 4 15 9 l6 9 -15 6 -15 5 0 -14z" />
    <path d="M235 30 c-3 -5 -3 -10 2 -11 4 0 16 -2 26 -4 l17 -3 0 14 0 14 -19 0
c-11 0 -23 -4 -26 -10z" />
  </g>
  <g transform="translate(0.000000,30.000000) scale(0.100000,-0.100000)" fill="#737d99" stroke="none">
    <path d="M148 200 c-9 -10 -14 -21 -10 -24 3 -3 0 -6 -6 -6 l-11 0 2 -19 1
-19 58 -1 58 0 0 20 0 20 -16 6 -16 6 -9 -14 -9 -14 0 33 0 32 -12 -1 c-7 0
-20 -9 -30 -19z m82 -35 c0 -3 -2 -5 -5 -5 -3 0 -5 2 -5 5 0 3 2 5 5 5 3 0 5
-2 5 -5z" />
    <path d="M61 201 l-13 -9 7 -23 c4 -13 13 -27 19 -31 6 -4 17 -8 24 -8 l12 0
0 15 0 14 -14 -5 -14 -5 -7 11 -7 11 21 6 21 5 0 14 0 14 -17 0 c-10 0 -24 -4
-32 -9z" />
  </g>
  <g transform="translate(0.000000,30.000000) scale(0.100000,-0.100000)" fill="#a2a7aa" stroke="none">
    <path d="M110 271 c6 -12 15 -21 20 -21 6 0 10 4 10 10 0 5 -9 14 -21 20 l-21
12 12 -21z" />
    <path d="M190 281 c0 -5 7 -11 15 -14 8 -4 17 -2 20 2 3 5 -2 12 -11 15 -9 3
-18 6 -20 6 -2 0 -4 -4 -4 -9z" />
    <path d="M40 224 c-6 -14 -10 -28 -10 -32 0 -3 5 -1 12 6 6 6 13 21 15 32 1
11 1 20 -2 20 -3 0 -10 -12 -15 -26z" />
    <path d="M277 206 l5 -25 17 -6 16 -6 -12 12 c-7 7 -13 21 -13 31 0 10 -4 18
-9 18 l-8 0 4 -24z" />
    <path d="M10 195 c0 -3 2 -5 5 -5 3 0 5 2 5 5 0 3 -2 5 -5 5 -3 0 -5 -2 -5 -5z" />
    <path d="M5 160 c3 -5 10 -10 16 -10 5 0 9 5 9 10 0 6 -7 10 -16 10 l-15 0 6
-10z" />
    <path d="M97 149 c-3 -11 -3 -27 0 -35 3 -8 11 -14 19 -14 l14 0 0 14 c0 8 -4
17 -10 21 l-9 6 6 14 5 15 -10 0 c-5 0 -12 -9 -15 -21z" />
    <path d="M140 125 c0 -9 7 -18 15 -22 9 -3 18 -3 21 -1 2 3 2 13 -2 22 -3 9
-12 16 -20 16 l-14 0 0 -15z" />
    <path d="M180 130 c0 -5 9 -10 20 -10 11 0 20 5 20 10 0 6 -9 10 -20 10 -11 0
-20 -4 -20 -10z" />
    <path d="M10 91 c0 -3 9 -12 20 -19 l20 -12 0 14 0 14 -20 5 c-11 3 -20 2 -20
-2z" />
    <path d="M300 89 l0 -10 -10 6 -10 6 0 -10 c0 -6 2 -11 4 -11 2 0 11 3 20 6 9
3 16 10 16 15 0 5 -4 9 -10 9 -5 0 -10 -5 -10 -11z" />
    <path d="M80 20 c0 -5 7 -10 15 -10 8 0 15 5 15 10 0 6 -7 10 -15 10 -8 0 -15
-4 -15 -10z" />
    <path d="M120 21 c0 -5 7 -11 15 -15 l15 -5 0 14 0 15 -15 0 c-8 0 -15 -4 -15
-9z" />
    <path d="M270 20 c0 -5 5 -10 11 -10 l10 0 -6 10 c-3 6 -8 10 -11 10 -2 0 -4
-4 -4 -10z" />
    <path d="M20 5 c0 -3 2 -5 5 -5 3 0 5 2 5 5 0 3 -2 5 -5 5 -3 0 -5 -2 -5 -5z" />
  </g>
  <g transform="translate(0.000000,30.000000) scale(0.100000,-0.100000)" fill="#b8a9ab" stroke="none">
    <path d="M270 230 c0 -5 5 -10 11 -10 l10 0 -6 10 c-3 6 -8 10 -11 10 -2 0 -4
-4 -4 -10z" />
    <path d="M295 170 l-6 -10 11 0 12 0 -6 -15 -5 -15 9 0 c6 0 10 9 10 19 0 11
-4 22 -9 26 -5 3 -12 1 -16 -5z" />
    <path d="M3 148 l-2 -21 12 12 11 11 -10 10 -10 10 -1 -22z" />
    <path d="M111 123 l14 -17 -12 8 -13 7 0 -15 0 -16 30 0 30 0 0 9 c0 5 -3 16
-6 25 l-6 16 -25 0 -25 0 13 -17z" />
    <path d="M180 123 l0 -13 25 0 25 0 0 14 0 14 -25 -2 -25 -1 0 -12z" />
    <path d="M307 103 c-4 -3 -7 -11 -7 -17 l0 -10 12 12 c6 6 9 14 7 17 -3 3 -9
2 -12 -2z" />
    <path d="M180 64 l0 -16 12 4 c6 2 14 10 16 16 l4 12 -16 0 -16 0 0 -16z" />
    <path d="M37 53 l-7 -10 23 -19 22 -19 -11 15 c-6 8 -13 22 -16 30 l-4 14 -7
-11z" />
    <path d="M283 53 c4 -3 10 -3 14 0 3 4 0 7 -7 7 -7 0 -10 -3 -7 -7z" />
    <path d="M140 12 c0 -5 7 -9 15 -9 8 0 15 4 15 9 0 4 -7 8 -15 8 -8 0 -15 -4
-15 -8z" />
    <path d="M180 10 c0 -5 9 -10 19 -10 11 0 23 5 26 10 l6 10 -25 0 -26 0 0 -10z" />
  </g>
  <g transform="translate(0.000000,30.000000) scale(0.100000,-0.100000)" fill="#2d3540" stroke="none">
    <path d="M160 235 l0 -15 15 0 14 0 -5 15 c-4 8 -10 15 -15 15 -5 0 -9 -7 -9
-15z" />
    <path d="M220 225 l0 -15 15 0 15 0 0 15 0 15 -15 0 -15 0 0 -15z" />
    <path d="M36 204 l-6 -15 13 7 12 8 -14 -17 -13 -17 11 0 c7 0 19 6 27 14 8 8
14 19 14 25 l0 11 -19 0 -19 0 -6 -16z" />
    <path d="M100 195 l0 -15 30 0 30 0 0 15 0 15 -30 0 -30 0 0 -15z" />
    <path d="M200 190 l0 -20 13 0 14 0 0 15 c0 8 -6 16 -14 19 l-13 5 0 -19z" />
    <path d="M293 163 c4 -3 10 -3 14 0 3 4 0 7 -7 7 -7 0 -10 -3 -7 -7z" />
    <path d="M57 146 l-6 -15 14 6 15 5 -6 9 c-3 5 -7 9 -9 9 -1 0 -5 -7 -8 -14z" />
    <path d="M285 140 c3 -5 8 -10 11 -10 3 0 2 5 -1 10 -3 6 -8 10 -11 10 -3 0
-2 -4 1 -10z" />
    <path d="M291 115 c0 -5 3 -16 8 -23 l8 -14 6 17 7 16 -9 -6 c-5 -3 -12 1 -14
7 l-5 13 -1 -10z" />
    <path d="M35 90 c-3 -5 -5 -10 -3 -11 2 0 16 -3 33 -5 16 -3 32 -8 35 -10 3
-3 5 -11 5 -17 0 -7 8 -13 17 -15 l16 -3 -2 17 c-2 10 -8 20 -14 22 -7 2 -12
10 -12 18 l0 14 -20 0 -20 0 0 -11 0 -11 -14 11 -14 12 -7 -11z m95 -34 c0 -3
-5 -8 -12 -12 l-11 -7 7 11 c7 12 16 16 16 8z" />
    <path d="M280 80 c0 -7 3 -10 7 -7 3 4 3 10 0 14 -4 3 -7 0 -7 -7z" />
    <path d="M220 69 l0 -10 -9 5 -9 6 2 -17 c2 -9 8 -19 14 -21 7 -2 10 -8 6 -13
l-5 -9 15 0 c9 0 16 5 16 10 0 6 -4 10 -9 10 -5 0 -12 7 -15 16 l-6 16 14 -5
15 -6 -6 15 c-3 7 -9 14 -14 14 -5 0 -9 -5 -9 -11z m0 -24 c0 -3 -2 -5 -5 -5
-3 0 -5 2 -5 5 0 3 2 5 5 5 3 0 5 -2 5 -5z" />
    <path d="M180 25 l0 -15 16 0 16 0 -12 15 c-7 8 -14 15 -16 15 -2 0 -4 -7 -4
-15z" />
  </g>
  <g transform="translate(0.000000,30.000000) scale(0.100000,-0.100000)" fill="#4b5968" stroke="none">
    <path d="M160 265 l0 -15 15 0 15 0 0 15 0 15 -15 0 -15 0 0 -15z" />
    <path d="M71 244 l1 -19 5 13 c3 7 2 16 -1 19 -3 4 -6 -2 -5 -13z" />
    <path d="M197 216 c-3 -12 -9 -31 -12 -43 l-7 -23 21 0 22 0 -7 12 -7 11 19
-6 19 -7 -17 14 c-10 7 -18 18 -18 25 0 6 5 11 10 11 6 0 10 6 10 13 l0 14
-14 0 -14 0 -5 -21z" />
    <path d="M57 213 c-4 -3 -2 -12 5 -20 l11 -14 -9 2 c-18 3 -34 -1 -34 -10 l0
-8 31 3 c17 2 35 6 40 9 l9 6 0 -16 0 -17 16 6 c9 3 19 6 22 6 4 0 0 5 -8 10
l-15 10 13 0 13 0 -5 9 -6 8 -29 -3 -30 -4 5 15 6 15 -14 0 c-8 0 -18 -3 -21
-7z m13 -8 c0 -3 -2 -5 -5 -5 -3 0 -5 2 -5 5 0 3 2 5 5 5 3 0 5 -2 5 -5z" />
    <path d="M37 73 c3 -7 6 -13 8 -13 2 0 5 6 8 13 l5 14 -13 0 -13 0 5 -14z" />
    <path d="M97 83 c-12 -11 -8 -23 8 -23 l15 0 0 15 c0 16 -12 20 -23 8z" />
    <path d="M300 85 c0 -3 2 -5 5 -5 3 0 5 2 5 5 0 3 -2 5 -5 5 -3 0 -5 -2 -5 -5z" />
    <path d="M255 60 l-6 -10 10 0 c5 0 13 5 16 10 l6 10 -10 0 c-5 0 -13 -4 -16
-10z" />
    <path d="M65 50 c3 -5 8 -10 11 -10 2 0 4 5 4 10 0 6 -5 10 -11 10 l-10 0 6
-10z" />
    <path d="M170 33 c0 -7 4 -13 9 -13 5 0 11 6 14 13 l5 14 -14 0 -14 0 0 -14z" />
  </g>
  <g transform="translate(0.000000,30.000000) scale(0.100000,-0.100000)" fill="#9ebbbb" stroke="none">
    <path d="M141 281 l13 -19 18 1 19 1 -3 16 -3 15 -28 3 -28 3 12 -20z" />
    <path d="M138 243 c-10 -2 -18 -10 -18 -17 l0 -13 45 0 45 0 0 14 0 14 -21 -6
-22 -7 7 11 7 11 -13 -1 c-7 -1 -21 -3 -30 -6z" />
    <path d="M73 224 l0 -14 19 0 c10 0 18 4 18 9 0 5 -8 11 -18 13 l-19 5 0 -13z" />
    <path d="M90 175 c0 -2 7 -8 15 -15 l15 -12 0 14 0 15 -15 0 c-8 0 -15 -1 -15
-2z" />
    <path d="M310 155 c0 -3 2 -5 5 -5 3 0 5 2 5 5 0 3 -2 5 -5 5 -3 0 -5 -2 -5
-5z" />
    <path d="M5 141 c-3 -5 -2 -12 3 -15 l9 -5 0 14 c0 8 -2 15 -3 15 -2 0 -5 -4
-9 -9z" />
    <path d="M215 130 c3 -5 8 -10 11 -10 2 0 4 5 4 10 0 6 -5 10 -11 10 l-10 0 6
-10z" />
    <path d="M310 135 c0 -3 2 -5 5 -5 3 0 5 2 5 5 0 3 -2 5 -5 5 -3 0 -5 -2 -5
-5z" />
    <path d="M0 40 c0 -7 3 -10 7 -7 3 4 3 10 0 14 -4 3 -7 0 -7 -7z" />
    <path d="M100 28 l0 -14 45 0 46 -1 -4 11 -4 11 -41 3 -42 3 0 -13z" />
    <path d="M276 18 c3 -4 11 -8 19 -8 8 0 17 4 20 10 l6 10 -25 -2 -25 -2 5 -8z" />
  </g>
  <g transform="translate(0.000000,30.000000) scale(0.100000,-0.100000)" fill="#8ba5ab" stroke="none">
    <path d="M147 294 c-4 -4 -7 -11 -7 -16 l0 -9 22 6 21 7 -6 -16 -6 -16 10 0 9
0 -6 -25 -6 -25 16 0 c9 0 16 5 16 10 0 6 -6 10 -12 10 l-13 0 13 9 13 8 -7
26 c-3 15 -10 27 -14 27 -5 0 -15 2 -22 5 -8 3 -17 2 -21 -1z" />
    <path d="M110 230 l-15 -9 20 -15 20 -14 12 10 c7 6 13 17 13 24 l0 14 -17 0
c-10 0 -25 -5 -33 -10z m30 -5 c0 -3 -2 -5 -5 -5 -3 0 -5 2 -5 5 0 3 2 5 5 5
3 0 5 -2 5 -5z" />
    <path d="M30 195 c0 -3 2 -5 5 -5 3 0 5 2 5 5 0 3 -2 5 -5 5 -3 0 -5 -2 -5 -5z" />
    <path d="M110 169 l0 -10 10 6 c6 3 10 8 10 11 0 2 -4 4 -10 4 -5 0 -10 -5
-10 -11z" />
    <path d="M226 141 c-4 -7 -5 -15 -2 -18 3 -4 9 -4 12 0 3 3 4 11 2 18 l-4 13
-8 -13z" />
    <path d="M85 40 l-20 -7 22 -11 21 -12 6 15 c3 8 2 16 -2 18 -4 3 -16 1 -27
-3z" />
    <path d="M161 36 l-12 -14 11 -7 10 -6 0 11 0 11 10 -6 10 -6 -6 15 c-3 9 -7
16 -9 16 -1 0 -8 -6 -14 -14z" />
  </g>
  <g transform="translate(0.000000,30.000000) scale(0.100000,-0.100000)" fill="#656a6c" stroke="none">
    <path d="M93 273 c-13 -2 -23 -7 -23 -11 0 -4 14 -7 30 -6 17 0 30 5 31 10 0
5 -3 9 -8 10 -4 1 -18 -1 -30 -3z m37 -8 c0 -3 -2 -5 -5 -5 -3 0 -5 2 -5 5 0
3 2 5 5 5 3 0 5 -2 5 -5z" />
    <path d="M220 218 c0 -4 5 -8 11 -8 l10 0 -6 -10 -6 -10 16 6 15 6 15 -12 15
-12 0 16 0 16 -12 -3 -13 -2 2 12 3 13 -25 -2 c-14 -1 -25 -6 -25 -10z" />
    <path d="M50 183 c0 -5 7 -18 15 -29 l14 -19 -6 23 c-3 12 -9 25 -14 28 -5 3
-9 1 -9 -3z" />
    <path d="M27 173 c-4 -3 -7 -11 -7 -17 l0 -10 12 12 c6 6 9 14 7 17 -3 3 -9 2
-12 -2z" />
    <path d="M305 160 c3 -5 8 -10 11 -10 3 0 2 5 -1 10 -3 6 -8 10 -11 10 -3 0
-2 -4 1 -10z" />
    <path d="M226 135 l-5 -15 14 0 c8 0 15 4 15 9 0 6 -4 12 -9 15 l-9 6 -6 -15z" />
    <path d="M17 133 c-4 -3 -7 -11 -7 -17 l0 -10 12 12 c6 6 9 14 7 17 -3 3 -9 2
-12 -2z" />
    <path d="M306 125 c4 -8 8 -15 10 -15 2 0 4 7 4 15 0 8 -4 15 -10 15 l-9 0 5
-15z" />
    <path d="M36 99 c2 -4 -2 -9 -8 -12 l-13 -5 21 1 21 1 0 11 c0 7 -6 12 -13 12
-7 0 -11 -4 -8 -8z" />
    <path d="M185 70 c-3 -5 -3 -14 0 -20 3 -5 11 -10 17 -10 l10 0 -13 17 -14 17
12 -7 12 -7 6 10 6 10 -15 0 c-8 0 -18 -4 -21 -10z" />
    <path d="M40 60 c0 -7 3 -10 7 -7 3 4 3 10 0 14 -4 3 -7 0 -7 -7z" />
    <path d="M210 20 c0 -6 7 -10 15 -10 8 0 15 2 15 4 0 2 -7 6 -15 10 l-15 5 0
-9z" />
  </g>
  <g transform="translate(0.000000,30.000000) scale(0.100000,-0.100000)" fill="#7e7d7a" stroke="none">
    <path d="M70 260 c0 -7 3 -10 7 -7 3 4 3 10 0 14 -4 3 -7 0 -7 -7z" />
    <path d="M100 265 c0 -3 2 -5 5 -5 3 0 5 2 5 5 0 3 -2 5 -5 5 -3 0 -5 -2 -5
-5z" />
    <path d="M100 245 c0 -3 2 -5 5 -5 3 0 5 2 5 5 0 3 -2 5 -5 5 -3 0 -5 -2 -5
-5z" />
    <path d="M260 230 c0 -5 5 -10 10 -10 6 0 10 5 10 10 0 6 -4 10 -10 10 -5 0
-10 -4 -10 -10z" />
    <path d="M274 198 l-7 -11 11 7 c7 4 12 9 12 12 0 8 -9 4 -16 -8z" />
    <path d="M23 168 c-4 -7 -8 -23 -8 -34 l-1 -22 12 5 11 4 -1 29 c-1 17 -2 30
-3 30 -1 0 -5 -6 -10 -12z" />
    <path d="M233 133 c-7 -2 -13 -9 -13 -14 0 -5 7 -9 15 -9 l15 0 0 15 c0 8 -1
15 -2 14 -2 0 -9 -3 -15 -6z" />
    <path d="M93 115 c0 -8 4 -15 9 -15 4 0 8 4 8 9 0 6 -4 12 -8 15 l-9 5 0 -14z" />
    <path d="M310 110 c0 -7 3 -10 7 -7 3 4 3 10 0 14 -4 3 -7 0 -7 -7z" />
    <path d="M170 57 l0 -14 14 0 14 0 -5 14 c-3 7 -9 13 -14 13 -5 0 -9 -6 -9
-13z" />
    <path d="M275 60 c3 -5 8 -10 11 -10 3 0 2 5 -1 10 -3 6 -8 10 -11 10 -3 0 -2
-4 1 -10z" />
    <path d="M41 43 c0 -13 1 -23 3 -23 2 0 11 3 20 6 9 3 16 11 16 16 l0 10 -14
-11 -14 -12 -5 18 -5 18 -1 -22z" />
    <path d="M210 29 l0 -11 -15 6 -15 5 0 -9 c0 -6 9 -10 19 -10 l19 0 6 15 5 15
-9 0 c-6 0 -10 -5 -10 -11z" />
    <path d="M235 20 l-6 -10 15 0 c9 0 16 5 16 10 0 6 -4 10 -9 10 -6 0 -13 -4
-16 -10z" />
  </g>
  <g transform="translate(0.000000,30.000000) scale(0.100000,-0.100000)" fill="#020d10" stroke="none">
    <path d="M190 274 l0 -15 9 5 9 6 -6 -22 -5 -21 11 7 12 7 1 -18 1 -18 4 11 5
12 18 -5 19 -5 6 11 7 11 -16 0 c-9 0 -27 11 -41 25 -14 14 -27 25 -29 25 -3
0 -5 -7 -5 -16z" />
    <path d="M160 220 c0 -5 7 -10 15 -10 8 0 15 5 15 10 0 6 -7 10 -15 10 -8 0
-15 -4 -15 -10z" />
    <path d="M45 210 l6 -9 14 6 c8 3 15 7 15 9 0 2 -9 4 -21 4 l-20 0 6 -10z" />
    <path d="M223 193 c4 -3 10 -3 14 0 3 4 0 7 -7 7 -7 0 -10 -3 -7 -7z" />
    <path d="M165 50 c3 -5 8 -10 11 -10 2 0 4 5 4 10 0 6 -5 10 -11 10 l-10 0 6
-10z" />
    <path d="M190 46 c0 -2 7 -7 16 -10 l15 -6 -6 10 c-3 6 -10 10 -16 10 -5 0 -9
-2 -9 -4z" />
  </g>
  <g transform="translate(0.000000,30.000000) scale(0.100000,-0.100000)" fill="#555753" stroke="none">
    <path d="M210 275 c0 -3 2 -5 5 -5 3 0 5 2 5 5 0 3 -2 5 -5 5 -3 0 -5 -2 -5
-5z" />
    <path d="M70 255 c0 -3 2 -5 5 -5 3 0 5 2 5 5 0 3 -2 5 -5 5 -3 0 -5 -2 -5 -5z" />
    <path d="M275 190 c3 -5 8 -10 11 -10 3 0 2 5 -1 10 -3 6 -8 10 -11 10 -3 0
-2 -4 1 -10z" />
    <path d="M74 129 l0 -17 18 9 c10 5 18 11 18 13 0 2 -8 6 -18 8 l-18 5 0 -18z" />
    <path d="M30 85 c0 -3 2 -5 5 -5 3 0 5 2 5 5 0 3 -2 5 -5 5 -3 0 -5 -2 -5 -5z" />
    <path d="M103 78 c1 -7 11 -16 21 -21 10 -4 21 -5 24 -2 3 2 -1 11 -8 20 -7 8
-19 15 -26 15 l-14 0 3 -12z m27 -3 c0 -3 -2 -5 -5 -5 -3 0 -5 2 -5 5 0 3 2 5
5 5 3 0 5 -2 5 -5z" />
    <path d="M274 68 l-7 -11 11 7 c7 4 12 9 12 12 0 8 -9 4 -16 -8z" />
    <path d="M70 45 c0 -8 4 -15 10 -15 l9 0 -5 15 c-4 8 -8 15 -10 15 -2 0 -4 -7
-4 -15z" />
    <path d="M213 33 c4 -3 10 -3 14 0 3 4 0 7 -7 7 -7 0 -10 -3 -7 -7z" />
    <path d="M50 25 c0 -3 2 -5 5 -5 3 0 5 2 5 5 0 3 -2 5 -5 5 -3 0 -5 -2 -5 -5z" />
    <path d="M187 19 c7 -7 15 -10 18 -7 3 3 -2 9 -12 12 l-18 7 12 -12z" />
    <path d="M243 23 c4 -3 10 -3 14 0 3 4 0 7 -7 7 -7 0 -10 -3 -7 -7z" />
    <path d="M270 25 c0 -3 2 -5 5 -5 3 0 5 2 5 5 0 3 -2 5 -5 5 -3 0 -5 -2 -5 -5z" />
  </g>
  <g transform="translate(0.000000,30.000000) scale(0.100000,-0.100000)" fill="#65787e" stroke="none">
    <path d="M185 280 c3 -5 8 -10 11 -10 2 0 4 5 4 10 0 6 -5 10 -11 10 l-10 0 6
-10z" />
    <path d="M201 244 l1 -19 5 13 c3 7 2 16 -1 19 -3 4 -6 -2 -5 -13z" />
    <path d="M50 235 c0 -3 2 -5 5 -5 3 0 5 2 5 5 0 3 -2 5 -5 5 -3 0 -5 -2 -5 -5z" />
    <path d="M70 235 c0 -3 2 -5 5 -5 3 0 5 2 5 5 0 3 -2 5 -5 5 -3 0 -5 -2 -5 -5z" />
    <path d="M87 221 c-10 -4 -18 -10 -18 -14 1 -4 1 -12 1 -18 l0 -10 -12 7 -11
7 8 -13 8 -13 13 17 13 18 10 -6 10 -6 6 11 7 11 -8 8 -9 8 -18 -7z" />
    <path d="M40 215 c0 -3 2 -5 5 -5 3 0 5 2 5 5 0 3 -2 5 -5 5 -3 0 -5 -2 -5 -5z" />
    <path d="M176 185 c4 -8 10 -15 15 -15 5 0 9 7 9 15 l0 15 -15 0 -14 0 5 -15z" />
    <path d="M110 160 c0 -5 5 -10 11 -10 l10 0 -6 10 c-3 6 -8 10 -11 10 -2 0 -4
-4 -4 -10z" />
    <path d="M140 165 c0 -3 2 -5 5 -5 3 0 5 2 5 5 0 3 -2 5 -5 5 -3 0 -5 -2 -5
-5z" />
    <path d="M263 63 c4 -3 10 -3 14 0 3 4 0 7 -7 7 -7 0 -10 -3 -7 -7z" />
    <path d="M89 38 l-14 -10 17 6 17 5 9 -16 9 -16 7 11 7 11 -19 10 -18 10 -15
-11z" />
    <path d="M180 25 c0 -3 2 -5 5 -5 3 0 5 2 5 5 0 3 -2 5 -5 5 -3 0 -5 -2 -5 -5z" />
  </g>
  <g transform="translate(0.000000,30.000000) scale(0.100000,-0.100000)" fill="#daf0f6" stroke="none">
    <path d="M132 268 c-7 -7 -12 -20 -12 -29 l0 -17 18 2 c9 0 23 7 30 14 l14 13
-12 14 c-7 8 -15 15 -19 15 -4 0 -12 -5 -19 -12z" />
    <path d="M120 30 l0 -10 28 1 27 0 -20 9 c-11 5 -23 9 -27 9 -5 1 -8 -3 -8 -9z" />
  </g>
  <g transform="translate(0.000000,30.000000) scale(0.100000,-0.100000)" fill="#2b4b59" stroke="none">
    <path d="M180 260 c-8 -5 -12 -12 -9 -15 4 -3 12 1 19 10 7 8 11 15 9 15 -2 0
-11 -4 -19 -10z" />
    <path d="M149 224 c-1 -11 -1 -23 0 -29 1 -5 -5 -2 -12 8 -8 9 -20 17 -28 17
l-14 0 25 -20 25 -19 23 6 22 5 -6 -16 -6 -16 14 5 c8 3 15 13 15 23 0 9 -6
23 -14 30 -7 7 -13 10 -13 6 0 -3 -7 -1 -15 6 l-15 12 -1 -18z m31 -19 c0 -3
-2 -5 -5 -5 -3 0 -5 2 -5 5 0 3 2 5 5 5 3 0 5 -2 5 -5z" />
    <path d="M80 80 c-14 -4 -19 -8 -12 -9 7 -1 11 -5 8 -10 l-5 -8 27 5 27 5 -13
5 -12 4 6 9 c3 5 4 9 2 8 -2 -1 -14 -5 -28 -9z" />
    <path d="M254 58 l-7 -11 11 7 c12 7 16 16 8 16 -3 0 -8 -5 -12 -12z" />
  </g>
  <g transform="translate(0.000000,30.000000) scale(0.100000,-0.100000)" fill="#3f2327" stroke="none">
    <path d="M30 135 l-12 -15 16 0 c9 0 16 -4 16 -9 0 -5 14 -14 31 -20 18 -6 34
-11 35 -11 2 0 4 5 4 10 0 6 -8 13 -17 17 -10 3 -27 14 -39 25 l-21 19 -13
-16z" />
    <path d="M236 135 c4 -8 10 -15 14 -15 l8 0 -5 -22 -4 -23 15 19 15 19 -21 19
c-11 10 -22 18 -24 18 -2 0 -1 -7 2 -15z" />
    <path d="M293 133 c4 -3 10 -3 14 0 3 4 0 7 -7 7 -7 0 -10 -3 -7 -7z" />
  </g>
  <g transform="translate(0.000000,30.000000) scale(0.100000,-0.100000)" fill="#59697f" stroke="none">
    <path d="M190 271 c0 -6 4 -13 10 -16 l10 -6 -6 15 c-3 9 -8 16 -10 16 -2 0
-4 -4 -4 -9z" />
    <path d="M165 250 l-6 -10 10 0 c6 0 11 5 11 10 0 6 -2 10 -4 10 -3 0 -8 -4
-11 -10z" />
    <path d="M95 221 l-30 -7 33 -5 32 -6 0 14 c0 7 -1 12 -2 12 -2 -1 -16 -4 -33
-8z" />
    <path d="M66 182 c-3 -4 4 -9 15 -9 10 -1 19 0 19 2 0 1 -7 5 -15 8 -8 4 -16
3 -19 -1z" />
    <path d="M143 183 c4 -3 10 -3 14 0 3 4 0 7 -7 7 -7 0 -10 -3 -7 -7z" />
    <path d="M197 179 c7 -7 15 -10 18 -7 3 3 -2 9 -12 12 l-18 7 12 -12z" />
    <path d="M110 165 c0 -3 2 -5 5 -5 3 0 5 2 5 5 0 3 -2 5 -5 5 -3 0 -5 -2 -5
-5z" />
    <path d="M173 152 l-11 -19 12 0 12 0 1 19 c1 10 1 18 0 18 -1 0 -7 -8 -14
-18z" />
    <path d="M200 155 c0 -3 2 -5 5 -5 3 0 5 2 5 5 0 3 -2 5 -5 5 -3 0 -5 -2 -5
-5z" />
  </g>
  <g transform="translate(0.000000,30.000000) scale(0.100000,-0.100000)" fill="#a7959e" stroke="none">
    <path d="M263 233 c4 -3 10 -3 14 0 3 4 0 7 -7 7 -7 0 -10 -3 -7 -7z" />
    <path d="M10 150 c0 -5 5 -10 11 -10 l10 0 -6 10 c-3 6 -8 10 -11 10 -2 0 -4
-4 -4 -10z" />
    <path d="M310 155 c0 -3 2 -5 5 -5 3 0 5 2 5 5 0 3 -2 5 -5 5 -3 0 -5 -2 -5
-5z" />
    <path d="M100 135 c0 -3 2 -5 5 -5 3 0 5 2 5 5 0 3 -2 5 -5 5 -3 0 -5 -2 -5
-5z" />
    <path d="M137 120 l17 -20 23 0 c13 0 23 3 23 8 0 4 -4 13 -9 20 l-8 14 -7
-17 -6 -16 -11 7 -11 7 13 8 14 9 -27 0 -28 0 17 -20z" />
    <path d="M310 105 c0 -3 2 -5 5 -5 3 0 5 2 5 5 0 3 -2 5 -5 5 -3 0 -5 -2 -5
-5z" />
    <path d="M105 90 c3 -5 10 -10 16 -10 5 0 9 5 9 10 0 6 -7 10 -16 10 l-15 0 6
-10z" />
  </g>
  <g transform="translate(0.000000,30.000000) scale(0.100000,-0.100000)" fill="#404a55" stroke="none">
    <path d="M190 275 c0 -3 2 -5 5 -5 3 0 5 2 5 5 0 3 -2 5 -5 5 -3 0 -5 -2 -5
-5z" />
    <path d="M200 255 c0 -3 2 -5 5 -5 3 0 5 2 5 5 0 3 -2 5 -5 5 -3 0 -5 -2 -5
-5z" />
    <path d="M260 235 c0 -3 2 -5 5 -5 3 0 5 2 5 5 0 3 -2 5 -5 5 -3 0 -5 -2 -5
-5z" />
    <path d="M70 215 c0 -3 2 -5 5 -5 3 0 5 2 5 5 0 3 -2 5 -5 5 -3 0 -5 -2 -5 -5z" />
    <path d="M220 215 c0 -3 2 -5 5 -5 3 0 5 2 5 5 0 3 -2 5 -5 5 -3 0 -5 -2 -5
-5z" />
    <path d="M140 185 c0 -3 2 -5 5 -5 3 0 5 2 5 5 0 3 -2 5 -5 5 -3 0 -5 -2 -5
-5z" />
    <path d="M60 175 c0 -3 2 -5 5 -5 3 0 5 2 5 5 0 3 -2 5 -5 5 -3 0 -5 -2 -5 -5z" />
    <path d="M231 154 l1 -19 5 13 c3 7 2 16 -1 19 -3 4 -6 -2 -5 -13z" />
    <path d="M30 105 c0 -3 2 -5 5 -5 3 0 5 2 5 5 0 3 -2 5 -5 5 -3 0 -5 -2 -5 -5z" />
    <path d="M55 80 c3 -5 8 -10 11 -10 3 0 2 5 -1 10 -3 6 -8 10 -11 10 -3 0 -2
-4 1 -10z" />
    <path d="M215 70 c4 -6 11 -8 16 -5 5 4 9 8 9 11 0 2 -7 4 -16 4 l-15 0 6 -10z" />
    <path d="M110 65 c0 -3 2 -5 5 -5 3 0 5 2 5 5 0 3 -2 5 -5 5 -3 0 -5 -2 -5 -5z" />
    <path d="M70 55 c0 -3 2 -5 5 -5 3 0 5 2 5 5 0 3 -2 5 -5 5 -3 0 -5 -2 -5 -5z" />
    <path d="M243 53 c4 -3 10 -3 14 0 3 4 0 7 -7 7 -7 0 -10 -3 -7 -7z" />
    <path d="M100 45 c0 -3 2 -5 5 -5 3 0 5 2 5 5 0 3 -2 5 -5 5 -3 0 -5 -2 -5 -5z" />
  </g>
  <g transform="translate(0.000000,30.000000) scale(0.100000,-0.100000)" fill="#6c929f" stroke="none">
    <path d="M150 231 l0 -13 -15 6 -15 5 0 -12 0 -13 45 -1 c25 -1 45 2 45 6 0 4
-10 7 -22 8 -11 1 -25 8 -29 15 l-9 13 0 -14z" />
    <path d="M120 29 l0 -10 10 6 c6 3 10 8 10 11 0 2 -4 4 -10 4 -5 0 -10 -5 -10
-11z" />
  </g>
  <g transform="translate(0.000000,30.000000) scale(0.100000,-0.100000)" fill="#edbdaf" stroke="none">
    <path d="M100 104 c0 -2 11 -14 24 -28 13 -15 30 -26 37 -26 8 0 22 7 32 14 9
7 17 18 17 25 0 6 -6 11 -14 11 -8 0 -17 -6 -19 -12 l-5 -13 -9 11 c-4 6 -20
13 -35 16 -16 3 -28 4 -28 2z" />
  </g>
  <g transform="translate(0.000000,30.000000) scale(0.100000,-0.100000)" fill="#9a201d" stroke="none">
    <path d="M185 115 c-22 -7 -39 -15 -37 -18 1 -4 2 -11 2 -17 0 -5 9 -10 19
-10 11 0 22 6 24 13 l5 12 1 -12 1 -13 19 0 c11 0 27 7 35 16 l16 15 -12 13
c-7 7 -17 13 -23 12 -5 0 -28 -5 -50 -11z" />
  </g>
  <g transform="translate(0.000000,30.000000) scale(0.100000,-0.100000)" fill="#9e817f" stroke="none">
    <path d="M25 140 c3 -5 8 -10 11 -10 3 0 2 5 -1 10 -3 6 -8 10 -11 10 -3 0 -2
-4 1 -10z" />
    <path d="M303 133 c4 -3 10 -3 14 0 3 4 0 7 -7 7 -7 0 -10 -3 -7 -7z" />
    <path d="M215 120 l-6 -10 10 0 c6 0 11 5 11 10 0 6 -2 10 -4 10 -3 0 -8 -4
-11 -10z" />
    <path d="M100 100 c0 -7 3 -10 7 -7 3 4 3 10 0 14 -4 3 -7 0 -7 -7z" />
    <path d="M148 53 c6 -2 18 -2 25 0 l12 5 -25 0 -25 0 13 -5z" />
    <path d="M40 45 c0 -3 2 -5 5 -5 3 0 5 2 5 5 0 3 -2 5 -5 5 -3 0 -5 -2 -5 -5z" />
  </g>
  <g transform="translate(0.000000,30.000000) scale(0.100000,-0.100000)" fill="#632d31" stroke="none">
    <path d="M30 135 c0 -3 2 -5 5 -5 3 0 5 2 5 5 0 3 -2 5 -5 5 -3 0 -5 -2 -5 -5z" />
    <path d="M242 119 c2 -7 10 -15 17 -17 l14 -4 -5 13 c-2 7 -10 15 -17 17 l-13
5 4 -14z" />
    <path d="M55 110 c3 -5 10 -10 16 -10 5 0 9 5 9 10 0 6 -7 10 -16 10 l-15 0 6
-10z" />
    <path d="M235 90 l6 -10 -18 -1 -18 -1 12 -4 c7 -3 20 -1 29 4 l16 9 -16 6
-17 7 6 -10z" />
  </g>
  <g transform="translate(0.000000,30.000000) scale(0.100000,-0.100000)" fill="#d3928d" stroke="none">
    <path d="M175 113 c-11 -3 -24 -10 -30 -15 l-10 -10 24 7 24 7 -6 -16 -6 -16
8 0 c4 0 13 11 19 25 6 14 8 24 4 24 -4 -1 -16 -3 -27 -6z" />
    <path d="M200 80 c0 -5 5 -10 11 -10 l10 0 -6 10 c-3 6 -8 10 -11 10 -2 0 -4
-4 -4 -10z" />
  </g>
  <g transform="translate(0.000000,30.000000) scale(0.100000,-0.100000)" fill="#a0413b" stroke="none">
    <path d="M213 105 l18 -13 19 5 c11 3 18 9 15 13 -2 4 -19 7 -37 8 l-33 1 18
-14z" />
    <path d="M154 98 l-7 -11 11 7 c12 7 16 16 8 16 -3 0 -8 -5 -12 -12z" />
    <path d="M174 78 l-7 -11 11 7 c12 7 16 16 8 16 -3 0 -8 -5 -12 -12z" />
  </g>
  <g transform="translate(0.000000,30.000000) scale(0.100000,-0.100000)" fill="#724044" stroke="none">
    <path d="M300 135 c0 -3 2 -5 5 -5 3 0 5 2 5 5 0 3 -2 5 -5 5 -3 0 -5 -2 -5
-5z" />
    <path d="M50 116 c0 -2 7 -7 16 -10 l15 -6 -6 10 c-3 6 -10 10 -16 10 -5 0 -9
-2 -9 -4z" />
    <path d="M260 105 c0 -3 2 -5 5 -5 3 0 5 2 5 5 0 3 -2 5 -5 5 -3 0 -5 -2 -5
-5z" />
    <path d="M100 95 c0 -3 2 -5 5 -5 3 0 5 2 5 5 0 3 -2 5 -5 5 -3 0 -5 -2 -5 -5z" />
    <path d="M205 80 c3 -5 8 -10 11 -10 3 0 2 5 -1 10 -3 6 -8 10 -11 10 -3 0 -2
-4 1 -10z" />
    <path d="M230 75 c0 -3 2 -5 5 -5 3 0 5 2 5 5 0 3 -2 5 -5 5 -3 0 -5 -2 -5 -5z" />
  </g>
  <g transform="translate(0.000000,30.000000) scale(0.100000,-0.100000)" fill="#ae605c" stroke="none">
    <path d="M204 100 l0 -20 10 10 10 10 -10 10 -10 10 0 -20z" />
    <path d="M172 96 c7 -8 15 -12 17 -11 1 2 0 8 -4 14 -3 6 -11 11 -16 11 l-10
0 13 -14z" />
    <path d="M150 75 c0 -3 2 -5 5 -5 3 0 5 2 5 5 0 3 -2 5 -5 5 -3 0 -5 -2 -5 -5z" />
  </g>
  <g transform="translate(0.000000,30.000000) scale(0.100000,-0.100000)" fill="#be0a0c" stroke="none">
    <path d="M210 100 c0 -5 7 -10 15 -10 8 0 15 5 15 10 0 6 -7 10 -15 10 -8 0
-15 -4 -15 -10z" />
  </g>
  <g transform="translate(0.000000,30.000000) scale(0.100000,-0.100000)" fill="#bcd6d7" stroke="none">
    <path d="M154 238 l-7 -11 11 7 c12 7 16 16 8 16 -3 0 -8 -5 -12 -12z" />
    <path d="M120 225 c0 -3 2 -5 5 -5 3 0 5 2 5 5 0 3 -2 5 -5 5 -3 0 -5 -2 -5
-5z" />
    <path d="M123 33 c4 -3 10 -3 14 0 3 4 0 7 -7 7 -7 0 -10 -3 -7 -7z" />
  </g>
</svg>
