<?xml version="1.0" standalone="no"?>
<!DOCTYPE svg PUBLIC "-//W3C//DTD SVG 20010904//EN"
 "http://www.w3.org/TR/2001/REC-SVG-20010904/DTD/svg10.dtd">
<svg version="1.0" xmlns="http://www.w3.org/2000/svg"
 width="148.000000pt" height="50.000000pt" viewBox="0 0 148.000000 50.000000"
 preserveAspectRatio="xMidYMid meet">
<metadata>
Created by potrace 1.16, written by Peter Selinger 2001-2019
</metadata>
<g transform="translate(0.000000,50.000000) scale(0.100000,-0.100000)"
fill="#000000" stroke="none">
<path d="M0 250 l0 -250 741 0 741 0 -3 83 c-3 63 -8 88 -21 101 -14 13 -18
34 -18 87 0 38 4 69 8 69 17 0 32 51 32 105 0 53 -13 74 -23 38 -4 -17 -5 -17
-6 0 -1 11 -9 17 -27 17 -21 0 -25 -4 -21 -20 4 -16 0 -20 -16 -19 -12 0 -16
3 -9 6 19 7 14 33 -6 33 -11 0 -24 -10 -31 -22 l-11 -23 6 23 c7 27 -12 30
-21 2 -7 -21 -25 -28 -25 -10 0 6 5 10 10 10 6 0 10 4 10 8 0 5 -25 10 -56 11
-48 1 -55 -1 -52 -16 2 -10 8 -21 13 -25 6 -4 2 -8 -7 -8 -13 0 -18 8 -18 25
0 32 -27 34 -33 3 -4 -23 -4 -23 -6 -1 l-1 21 -575 2 -575 1 0 -251z"/>
</g>
</svg>
